<svg version="1.1" viewBox="0.0 0.0 454.0 339.0" fill="none" stroke="none" stroke-linecap="square" stroke-miterlimit="10" width="454" height="339" xmlns:xlink="http://www.w3.org/1999/xlink" xmlns="http://www.w3.org/2000/svg"><path fill="#ffffff" d="M0 0L454.0 0L454.0 339.0L0 339.0L0 0Z" fill-rule="nonzero"/><path stroke="#ffffff" stroke-width="1.0" stroke-linecap="butt" d="M146.5 26.5L146.5 205.5" fill-rule="nonzero"/><path stroke="#ffffff" stroke-width="1.0" stroke-linecap="butt" d="M241.5 26.5L241.5 205.5" fill-rule="nonzero"/><path stroke="#ffffff" stroke-width="1.0" stroke-linecap="butt" d="M335.5 26.5L335.5 205.5" fill-rule="nonzero"/><path stroke="#ffffff" stroke-width="1.0" stroke-linecap="butt" d="M430.5 26.5L430.5 205.5" fill-rule="nonzero"/><path stroke="#b3b3b3" stroke-width="1.0" stroke-linecap="butt" d="M105.5 205.5L437.5 205.5" fill-rule="nonzero"/><path stroke="#b3b3b3" stroke-width="1.0" stroke-linecap="butt" d="M105.5 145.5L437.5 145.5" fill-rule="nonzero"/><path stroke="#b3b3b3" stroke-width="1.0" stroke-linecap="butt" d="M105.5 86.5L437.5 86.5" fill-rule="nonzero"/><path stroke="#b3b3b3" stroke-width="1.0" stroke-linecap="butt" d="M105.5 26.5L437.5 26.5" fill-rule="nonzero"/><path stroke="#d9d9d9" stroke-width="1.0" stroke-linecap="butt" d="M105.5 160.5L437.5 160.5" fill-rule="nonzero"/><path stroke="#d9d9d9" stroke-width="1.0" stroke-linecap="butt" d="M105.5 175.5L437.5 175.5" fill-rule="nonzero"/><path stroke="#d9d9d9" stroke-width="1.0" stroke-linecap="butt" d="M105.5 190.5L437.5 190.5" fill-rule="nonzero"/><path stroke="#d9d9d9" stroke-width="1.0" stroke-linecap="butt" d="M105.5 101.5L437.5 101.5" fill-rule="nonzero"/><path stroke="#d9d9d9" stroke-width="1.0" stroke-linecap="butt" d="M105.5 116.5L437.5 116.5" fill-rule="nonzero"/><path stroke="#d9d9d9" stroke-width="1.0" stroke-linecap="butt" d="M105.5 131.5L437.5 131.5" fill-rule="nonzero"/><path stroke="#d9d9d9" stroke-width="1.0" stroke-linecap="butt" d="M105.5 41.5L437.5 41.5" fill-rule="nonzero"/><path stroke="#d9d9d9" stroke-width="1.0" stroke-linecap="butt" d="M105.5 56.5L437.5 56.5" fill-rule="nonzero"/><path stroke="#d9d9d9" stroke-width="1.0" stroke-linecap="butt" d="M105.5 71.5L437.5 71.5" fill-rule="nonzero"/><clipPath id="id_0"><path d="M105.95 26.45L437.05 26.45L437.05 205.75L105.95 205.75L105.95 26.45Z" clip-rule="nonzero"/></clipPath><path stroke="#5483ae" stroke-width="1.0" stroke-linecap="butt" clip-path="url(#id_0)" d="M112.66602 199.17566L112.66602 163.31567" fill-rule="nonzero"/><path stroke="#5483ae" stroke-width="1.0" stroke-linecap="butt" clip-path="url(#id_0)" d="M106.66602 199.17566L118.66602 199.17566" fill-rule="nonzero"/><path stroke="#5483ae" stroke-width="1.0" stroke-linecap="butt" clip-path="url(#id_0)" d="M106.66602 163.31567L118.66602 163.31567" fill-rule="nonzero"/><path stroke="#5483ae" stroke-width="1.0" stroke-linecap="butt" clip-path="url(#id_0)" d="M173.17421 80.24L173.17421 44.38" fill-rule="nonzero"/><path stroke="#5483ae" stroke-width="1.0" stroke-linecap="butt" clip-path="url(#id_0)" d="M167.17421 80.24L179.17421 80.24" fill-rule="nonzero"/><path stroke="#5483ae" stroke-width="1.0" stroke-linecap="butt" clip-path="url(#id_0)" d="M167.17421 44.38L179.17421 44.38" fill-rule="nonzero"/><path stroke="#5483ae" stroke-width="1.0" stroke-linecap="butt" clip-path="url(#id_0)" d="M294.19058 74.263336L294.19058 38.40333" fill-rule="nonzero"/><path stroke="#5483ae" stroke-width="1.0" stroke-linecap="butt" clip-path="url(#id_0)" d="M288.19058 74.263336L300.19058 74.263336" fill-rule="nonzero"/><path stroke="#5483ae" stroke-width="1.0" stroke-linecap="butt" clip-path="url(#id_0)" d="M288.19058 38.40333L300.19058 38.40333" fill-rule="nonzero"/><path stroke="#5483ae" stroke-width="1.0" stroke-linecap="butt" clip-path="url(#id_0)" d="M430.33398 67.98783L430.33398 32.127834" fill-rule="nonzero"/><path stroke="#5483ae" stroke-width="1.0" stroke-linecap="butt" clip-path="url(#id_0)" d="M424.33398 67.98783L436.33398 67.98783" fill-rule="nonzero"/><path stroke="#5483ae" stroke-width="1.0" stroke-linecap="butt" clip-path="url(#id_0)" d="M424.33398 32.127834L436.33398 32.127834" fill-rule="nonzero"/><path stroke="#ff9c81" stroke-width="1.0" stroke-linecap="butt" clip-path="url(#id_0)" d="M294.19058 189.73253L294.19058 159.61014" fill-rule="nonzero"/><path stroke="#ff9c81" stroke-width="1.0" stroke-linecap="butt" clip-path="url(#id_0)" d="M288.19058 189.73253L300.19058 189.73253" fill-rule="nonzero"/><path stroke="#ff9c81" stroke-width="1.0" stroke-linecap="butt" clip-path="url(#id_0)" d="M288.19058 159.61014L300.19058 159.61014" fill-rule="nonzero"/><path stroke="#ff9c81" stroke-width="1.0" stroke-linecap="butt" clip-path="url(#id_0)" d="M430.33398 148.85213L430.33398 109.6452" fill-rule="nonzero"/><path stroke="#ff9c81" stroke-width="1.0" stroke-linecap="butt" clip-path="url(#id_0)" d="M424.33398 148.85213L436.33398 148.85213" fill-rule="nonzero"/><path stroke="#ff9c81" stroke-width="1.0" stroke-linecap="butt" clip-path="url(#id_0)" d="M424.33398 109.6452L436.33398 109.6452" fill-rule="nonzero"/><path fill="#004586" clip-path="url(#id_0)" d="M117.16602 181.24567C117.16602 183.73094 115.151306 185.74567 112.66602 185.74567C110.18074 185.74567 108.16602 183.73094 108.16602 181.24567C108.16602 178.76039 110.18074 176.74567 112.66602 176.74567C115.151306 176.74567 117.16602 178.76039 117.16602 181.24567Z" fill-rule="nonzero"/><path fill="#004586" clip-path="url(#id_0)" d="M177.67421 62.31C177.67421 64.79528 175.65948 66.81 173.17421 66.81C170.68892 66.81 168.67421 64.79528 168.67421 62.31C168.67421 59.82472 170.68892 57.81 173.17421 57.81C175.65948 57.81 177.67421 59.82472 177.67421 62.31Z" fill-rule="nonzero"/><path fill="#004586" clip-path="url(#id_0)" d="M298.69058 56.333332C298.69058 58.818615 296.67584 60.833332 294.19058 60.833332C291.7053 60.833332 289.69058 58.818615 289.69058 56.333332C289.69058 53.848053 291.7053 51.833332 294.19058 51.833332C296.67584 51.833332 298.69058 53.848053 298.69058 56.333332Z" fill-rule="nonzero"/><path fill="#004586" clip-path="url(#id_0)" d="M434.83398 50.057835C434.83398 52.543114 432.81924 54.557835 430.33398 54.557835C427.8487 54.557835 425.83398 52.543114 425.83398 50.057835C425.83398 47.57255 427.8487 45.557835 430.33398 45.557835C432.81924 45.557835 434.83398 47.57255 434.83398 50.057835Z" fill-rule="nonzero"/><path fill="#ff420e" clip-path="url(#id_0)" d="M294.19058 170.17134L298.08768 176.92134L290.29346 176.92134Z" fill-rule="nonzero"/><path fill="#ff420e" clip-path="url(#id_0)" d="M430.33398 124.748665L434.23108 131.49867L426.43686 131.49867Z" fill-rule="nonzero"/><path fill="#424242" d="M222.04688 281.75L222.04688 267.4375L226.96875 267.4375Q228.64062 267.4375 229.53125 267.64062Q230.75 267.92188 231.625 268.65625Q232.75 269.625 233.3125 271.10938Q233.875 272.59375 233.875 274.51562Q233.875 276.14062 233.5 277.40625Q233.125 278.65625 232.51562 279.48438Q231.92188 280.3125 231.21875 280.79688Q230.51562 281.26562 229.51562 281.51562Q228.51562 281.75 227.20312 281.75L222.04688 281.75ZM223.9375 280.0625L227.0 280.0625Q228.40625 280.0625 229.20312 279.79688Q230.01562 279.53125 230.5 279.04688Q231.17188 278.375 231.54688 277.25Q231.92188 276.10938 231.92188 274.48438Q231.92188 272.23438 231.1875 271.03125Q230.45312 269.82812 229.39062 269.42188Q228.64062 269.125 226.95312 269.125L223.9375 269.125L223.9375 280.0625ZM242.59375 280.46875Q241.60938 281.29688 240.70312 281.64062Q239.79688 281.98438 238.76562 281.98438Q237.0625 281.98438 236.14062 281.15625Q235.21875 280.3125 235.21875 279.01562Q235.21875 278.25 235.5625 277.625Q235.92188 277.0 236.48438 276.625Q237.04688 276.23438 237.75 276.03125Q238.26562 275.90625 239.3125 275.76562Q241.4375 275.51562 242.4375 275.17188Q242.45312 274.8125 242.45312 274.70312Q242.45312 273.64062 241.95312 273.1875Q241.28125 272.59375 239.95312 272.59375Q238.70312 272.59375 238.10938 273.03125Q237.53125 273.46875 237.25 274.57812L235.53125 274.34375Q235.76562 273.23438 236.29688 272.5625Q236.82812 271.875 237.84375 271.51562Q238.85938 271.14062 240.20312 271.14062Q241.53125 271.14062 242.35938 271.45312Q243.1875 271.76562 243.57812 272.25Q243.96875 272.71875 244.125 273.4375Q244.21875 273.89062 244.21875 275.0625L244.21875 277.40625Q244.21875 279.85938 244.32812 280.51562Q244.4375 281.15625 244.78125 281.75L242.9375 281.75Q242.67188 281.20312 242.59375 280.46875ZM242.4375 276.54688Q241.48438 276.9375 239.5625 277.20312Q238.48438 277.35938 238.03125 277.5625Q237.59375 277.75 237.34375 278.125Q237.09375 278.5 237.09375 278.96875Q237.09375 279.67188 237.625 280.14062Q238.15625 280.60938 239.1875 280.60938Q240.20312 280.60938 240.98438 280.17188Q241.78125 279.71875 242.15625 278.95312Q242.4375 278.34375 242.4375 277.1875L242.4375 276.54688ZM250.65625 280.17188L250.90625 281.73438Q250.17188 281.89062 249.57812 281.89062Q248.625 281.89062 248.09375 281.59375Q247.57812 281.28125 247.35938 280.79688Q247.14062 280.29688 247.14062 278.71875L247.14062 272.75L245.85938 272.75L245.85938 271.375L247.14062 271.375L247.14062 268.8125L248.89062 267.75L248.89062 271.375L250.65625 271.375L250.65625 272.75L248.89062 272.75L248.89062 278.8125Q248.89062 279.5625 248.98438 279.78125Q249.07812 279.98438 249.28125 280.125Q249.5 280.25 249.89062 280.25Q250.17188 280.25 250.65625 280.17188ZM259.59375 280.46875Q258.60938 281.29688 257.70312 281.64062Q256.79688 281.98438 255.76562 281.98438Q254.0625 281.98438 253.14062 281.15625Q252.21875 280.3125 252.21875 279.01562Q252.21875 278.25 252.5625 277.625Q252.92188 277.0 253.48438 276.625Q254.04688 276.23438 254.75 276.03125Q255.26562 275.90625 256.3125 275.76562Q258.4375 275.51562 259.4375 275.17188Q259.45312 274.8125 259.45312 274.70312Q259.45312 273.64062 258.95312 273.1875Q258.28125 272.59375 256.95312 272.59375Q255.70312 272.59375 255.10938 273.03125Q254.53125 273.46875 254.25 274.57812L252.53125 274.34375Q252.76562 273.23438 253.29688 272.5625Q253.82812 271.875 254.84375 271.51562Q255.85938 271.14062 257.20312 271.14062Q258.53125 271.14062 259.35938 271.45312Q260.1875 271.76562 260.57812 272.25Q260.96875 272.71875 261.125 273.4375Q261.21875 273.89062 261.21875 275.0625L261.21875 277.40625Q261.21875 279.85938 261.32812 280.51562Q261.4375 281.15625 261.78125 281.75L259.9375 281.75Q259.67188 281.20312 259.59375 280.46875ZM259.4375 276.54688Q258.48438 276.9375 256.5625 277.20312Q255.48438 277.35938 255.03125 277.5625Q254.59375 277.75 254.34375 278.125Q254.09375 278.5 254.09375 278.96875Q254.09375 279.67188 254.625 280.14062Q255.15625 280.60938 256.1875 280.60938Q257.20312 280.60938 257.98438 280.17188Q258.78125 279.71875 259.15625 278.95312Q259.4375 278.34375 259.4375 277.1875L259.4375 276.54688ZM269.78125 281.75L269.78125 267.4375L271.53125 267.4375L271.53125 281.75L269.78125 281.75ZM280.92188 278.40625L282.73438 278.64062Q282.3125 280.21875 281.14062 281.10938Q279.98438 281.98438 278.17188 281.98438Q275.90625 281.98438 274.5625 280.59375Q273.23438 279.1875 273.23438 276.65625Q273.23438 274.03125 274.57812 272.59375Q275.92188 271.14062 278.07812 271.14062Q280.15625 271.14062 281.46875 272.5625Q282.79688 273.96875 282.79688 276.54688Q282.79688 276.70312 282.78125 277.01562L275.04688 277.01562Q275.14062 278.71875 276.01562 279.625Q276.89062 280.53125 278.1875 280.53125Q279.15625 280.53125 279.82812 280.03125Q280.51562 279.51562 280.92188 278.40625ZM275.14062 275.5625L280.9375 275.5625Q280.82812 274.26562 280.28125 273.60938Q279.4375 272.59375 278.09375 272.59375Q276.89062 272.59375 276.0625 273.40625Q275.23438 274.20312 275.14062 275.5625ZM284.8125 281.75L284.8125 271.375L286.40625 271.375L286.40625 272.85938Q287.54688 271.14062 289.70312 271.14062Q290.64062 271.14062 291.42188 271.48438Q292.21875 271.8125 292.60938 272.35938Q293.0 272.90625 293.15625 273.65625Q293.25 274.15625 293.25 275.375L293.25 281.75L291.48438 281.75L291.48438 275.4375Q291.48438 274.35938 291.28125 273.82812Q291.07812 273.29688 290.54688 272.98438Q290.03125 272.67188 289.32812 272.67188Q288.20312 272.67188 287.39062 273.39062Q286.57812 274.09375 286.57812 276.07812L286.57812 281.75L284.8125 281.75ZM295.5 282.60938L297.20312 282.85938Q297.3125 283.65625 297.79688 284.01562Q298.45312 284.5 299.59375 284.5Q300.8125 284.5 301.46875 284.01562Q302.14062 283.53125 302.375 282.65625Q302.51562 282.10938 302.5 280.39062Q301.34375 281.75 299.625 281.75Q297.48438 281.75 296.3125 280.20312Q295.14062 278.65625 295.14062 276.5Q295.14062 275.01562 295.67188 273.76562Q296.21875 272.51562 297.23438 271.82812Q298.26562 271.14062 299.64062 271.14062Q301.46875 271.14062 302.67188 272.625L302.67188 271.375L304.28125 271.375L304.28125 280.34375Q304.28125 282.76562 303.78125 283.76562Q303.29688 284.78125 302.21875 285.35938Q301.15625 285.95312 299.59375 285.95312Q297.75 285.95312 296.59375 285.125Q295.45312 284.29688 295.5 282.60938ZM296.95312 276.375Q296.95312 278.42188 297.76562 279.35938Q298.57812 280.29688 299.79688 280.29688Q301.0 280.29688 301.8125 279.35938Q302.64062 278.42188 302.64062 276.4375Q302.64062 274.53125 301.79688 273.5625Q300.95312 272.59375 299.76562 272.59375Q298.59375 272.59375 297.76562 273.54688Q296.95312 274.5 296.95312 276.375ZM310.65625 280.17188L310.90625 281.73438Q310.17188 281.89062 309.57812 281.89062Q308.625 281.89062 308.09375 281.59375Q307.57812 281.28125 307.35938 280.79688Q307.14062 280.29688 307.14062 278.71875L307.14062 272.75L305.85938 272.75L305.85938 271.375L307.14062 271.375L307.14062 268.8125L308.89062 267.75L308.89062 271.375L310.65625 271.375L310.65625 272.75L308.89062 272.75L308.89062 278.8125Q308.89062 279.5625 308.98438 279.78125Q309.07812 279.98438 309.28125 280.125Q309.5 280.25 309.89062 280.25Q310.17188 280.25 310.65625 280.17188ZM312.8125 281.75L312.8125 267.4375L314.57812 267.4375L314.57812 272.5625Q315.8125 271.14062 317.6875 271.14062Q318.82812 271.14062 319.67188 271.59375Q320.53125 272.04688 320.89062 272.85938Q321.26562 273.65625 321.26562 275.17188L321.26562 281.75L319.51562 281.75L319.51562 275.17188Q319.51562 273.85938 318.9375 273.26562Q318.35938 272.65625 317.32812 272.65625Q316.54688 272.65625 315.84375 273.0625Q315.15625 273.46875 314.85938 274.17188Q314.57812 274.85938 314.57812 276.07812L314.57812 281.75L312.8125 281.75Z" fill-rule="nonzero"/><path fill="#424242" d="M35.95 183.88126L21.6375 178.38126L21.6375 176.33438L35.95 170.475L35.95 172.63126L31.60625 174.30313L31.60625 180.2875L35.95 181.86563L35.95 183.88126ZM30.075 179.74063L30.075 174.89688L26.10625 176.38126Q24.29375 177.06876 23.1375 177.39688Q24.5125 177.67813 25.871876 178.17813L30.075 179.74063ZM32.153126 162.75626L32.371876 161.0375Q34.16875 161.31876 35.184376 162.49063Q36.184376 163.64688 36.184376 165.35Q36.184376 167.475 34.79375 168.77188Q33.403126 170.06876 30.809376 170.06876Q29.121876 170.06876 27.871876 169.52188Q26.60625 168.95938 25.98125 167.81876Q25.340626 166.67813 25.340626 165.33438Q25.340626 163.64688 26.2 162.58438Q27.059376 161.50626 28.621876 161.19376L28.8875 162.9125Q27.840626 163.14688 27.325 163.77188Q26.79375 164.39688 26.79375 165.27188Q26.79375 166.6 27.746876 167.42813Q28.7 168.25626 30.746876 168.25626Q32.840626 168.25626 33.79375 167.45938Q34.73125 166.6625 34.73125 165.36563Q34.73125 164.33438 34.10625 163.64688Q33.465626 162.94376 32.153126 162.75626ZM32.153126 152.75626L32.371876 151.0375Q34.16875 151.31876 35.184376 152.49063Q36.184376 153.64688 36.184376 155.35Q36.184376 157.475 34.79375 158.77188Q33.403126 160.06876 30.809376 160.06876Q29.121876 160.06876 27.871876 159.52188Q26.60625 158.95938 25.98125 157.81876Q25.340626 156.67813 25.340626 155.33438Q25.340626 153.64688 26.2 152.58438Q27.059376 151.50626 28.621876 151.19376L28.8875 152.9125Q27.840626 153.14688 27.325 153.77188Q26.79375 154.39688 26.79375 155.27188Q26.79375 156.6 27.746876 157.42813Q28.7 158.25626 30.746876 158.25626Q32.840626 158.25626 33.79375 157.45938Q34.73125 156.6625 34.73125 155.36563Q34.73125 154.33438 34.10625 153.64688Q33.465626 152.94376 32.153126 152.75626ZM35.95 142.74063L34.41875 142.74063Q36.184376 143.94376 36.184376 146.02188Q36.184376 146.94376 35.840626 147.74063Q35.48125 148.5375 34.95 148.92813Q34.41875 149.30313 33.6375 149.45938Q33.121876 149.56876 31.996876 149.56876L25.575 149.56876L25.575 147.81876L31.325 147.81876Q32.7 147.81876 33.184376 147.70938Q33.871876 147.5375 34.278126 147.00626Q34.66875 146.45938 34.66875 145.67813Q34.66875 144.88126 34.2625 144.19376Q33.85625 143.49063 33.16875 143.20938Q32.465626 142.9125 31.1375 142.9125L25.575 142.9125L25.575 141.1625L35.95 141.1625L35.95 142.74063ZM35.95 138.55313L25.575 138.55313L25.575 136.975L27.153126 136.975Q26.04375 136.36563 25.7 135.85Q25.340626 135.33438 25.340626 134.725Q25.340626 133.83438 25.903126 132.9125L27.54375 133.52188Q27.153126 134.1625 27.153126 134.80313Q27.153126 135.38126 27.5125 135.85Q27.85625 136.30313 28.465626 136.50626Q29.403126 136.7875 30.5125 136.7875L35.95 136.7875L35.95 138.55313ZM34.66875 124.75625Q35.496876 125.74062 35.840626 126.64687Q36.184376 127.55312 36.184376 128.58438Q36.184376 130.2875 35.35625 131.20938Q34.5125 132.13126 33.215626 132.13126Q32.45 132.13126 31.825 131.7875Q31.2 131.42813 30.825 130.86563Q30.434376 130.30313 30.23125 129.6Q30.10625 129.08438 29.965626 128.0375Q29.715626 125.9125 29.371876 124.9125Q29.0125 124.89687 28.903126 124.89687Q27.840626 124.89687 27.3875 125.39687Q26.79375 126.06875 26.79375 127.39687Q26.79375 128.64688 27.23125 129.24063Q27.66875 129.81876 28.778126 130.1L28.54375 131.81876Q27.434376 131.58438 26.7625 131.05313Q26.075 130.52188 25.715626 129.50626Q25.340626 128.49063 25.340626 127.14687Q25.340626 125.81875 25.653126 124.99062Q25.965626 124.1625 26.45 123.77187Q26.91875 123.38125 27.6375 123.225Q28.090626 123.13125 29.2625 123.13125L31.60625 123.13125Q34.059376 123.13125 34.715626 123.02187Q35.35625 122.9125 35.95 122.56875L35.95 124.4125Q35.403126 124.67812 34.66875 124.75625ZM30.746876 124.9125Q31.1375 125.86562 31.403126 127.7875Q31.559376 128.86563 31.7625 129.31876Q31.95 129.75626 32.325 130.00626Q32.7 130.25626 33.16875 130.25626Q33.871876 130.25626 34.340626 129.725Q34.809376 129.19376 34.809376 128.1625Q34.809376 127.14687 34.371876 126.36562Q33.91875 125.56875 33.153126 125.19375Q32.54375 124.9125 31.3875 124.9125L30.746876 124.9125ZM32.153126 113.75624L32.371876 112.03749Q34.16875 112.31874 35.184376 113.490616Q36.184376 114.646866 36.184376 116.34999Q36.184376 118.47499 34.79375 119.771866Q33.403126 121.06874 30.809376 121.06874Q29.121876 121.06874 27.871876 120.521866Q26.60625 119.959366 25.98125 118.81874Q25.340626 117.678116 25.340626 116.334366Q25.340626 114.646866 26.2 113.584366Q27.059376 112.50624 28.621876 112.19374L28.8875 113.91249Q27.840626 114.146866 27.325 114.771866Q26.79375 115.396866 26.79375 116.271866Q26.79375 117.59999 27.746876 118.428116Q28.7 119.25624 30.746876 119.25624Q32.840626 119.25624 33.79375 118.459366Q34.73125 117.66249 34.73125 116.365616Q34.73125 115.334366 34.10625 114.646866Q33.465626 113.94374 32.153126 113.75624ZM39.95 110.615616L38.29375 110.803116Q38.45 110.22499 38.45 109.803116Q38.45 109.209366 38.246876 108.865616Q38.059376 108.50624 37.715626 108.28749Q37.45 108.115616 36.403126 107.740616Q36.246876 107.69374 35.965626 107.584366L25.575 111.521866L25.575 109.63124L31.590626 107.47499Q32.73125 107.053116 33.98125 106.72499Q32.778126 106.41249 31.621876 106.00624L25.575 103.78749L25.575 102.021866L36.121876 105.97499Q37.840626 106.59999 38.48125 106.959366Q39.35625 107.428116 39.746876 108.03749Q40.153126 108.63124 40.153126 109.47499Q40.153126 109.990616 39.95 110.615616ZM39.91875 94.490616L21.6375 94.490616L21.6375 90.615616L23.090626 90.615616L23.090626 92.740616L38.465626 92.740616L38.465626 90.615616L39.91875 90.615616L39.91875 94.490616ZM25.075 88.69374Q23.54375 88.69374 22.465626 87.928116Q21.3875 87.146866 21.3875 85.678116Q21.3875 84.334366 22.35625 83.459366Q23.309376 82.56874 25.184376 82.56874Q26.996876 82.56874 27.98125 83.459366Q28.95 84.34999 28.95 85.66249Q28.95 86.959366 27.996876 87.834366Q27.028126 88.69374 25.075 88.69374ZM22.60625 85.63124Q22.60625 86.28749 23.16875 86.72499Q23.73125 87.146866 25.246876 87.146866Q26.621876 87.146866 27.184376 86.709366Q27.746876 86.271866 27.746876 85.63124Q27.746876 84.959366 27.184376 84.53749Q26.60625 84.09999 25.10625 84.09999Q23.715626 84.09999 23.16875 84.53749Q22.60625 84.97499 22.60625 85.63124ZM36.48125 85.615616L21.3875 77.78749L21.3875 76.365616L36.48125 84.16249L36.48125 85.615616ZM32.590626 79.428116Q31.04375 79.428116 29.98125 78.66249Q28.903126 77.88124 28.903126 76.41249Q28.903126 75.06874 29.871876 74.19374Q30.825 73.303116 32.7 73.303116Q34.5125 73.303116 35.496876 74.19374Q36.48125 75.084366 36.48125 76.396866Q36.48125 77.69374 35.5125 78.56874Q34.528126 79.428116 32.590626 79.428116ZM30.121876 76.365616Q30.121876 77.021866 30.684376 77.459366Q31.246876 77.896866 32.7625 77.896866Q34.1375 77.896866 34.7 77.459366Q35.2625 77.021866 35.2625 76.365616Q35.2625 75.69374 34.7 75.271866Q34.1375 74.834366 32.621876 74.834366Q31.246876 74.834366 30.684376 75.271866Q30.121876 75.709366 30.121876 76.365616ZM39.91875 67.584366L39.91875 71.47499L38.465626 71.47499L38.465626 69.34999L23.090626 69.34999L23.090626 71.47499L21.6375 71.47499L21.6375 67.584366L39.91875 67.584366Z" fill-rule="nonzero"/><path fill="#757575" d="M85.12187 211.25L85.12187 208.5L80.15312 208.5L80.15312 207.21875L85.3875 199.79688L86.52812 199.79688L86.52812 207.21875L88.075 207.21875L88.075 208.5L86.52812 208.5L86.52812 211.25L85.12187 211.25ZM85.12187 207.21875L85.12187 202.04688L81.54375 207.21875L85.12187 207.21875ZM89.62187 205.59375Q89.62187 203.5625 90.02812 202.32812Q90.45 201.09375 91.27812 200.42188Q92.10625 199.75 93.35625 199.75Q94.27812 199.75 94.96562 200.125Q95.66875 200.48438 96.12187 201.1875Q96.575 201.89062 96.825 202.89062Q97.09062 203.89062 97.09062 205.59375Q97.09062 207.60938 96.66875 208.85938Q96.2625 210.09375 95.43437 210.78125Q94.60625 211.45312 93.35625 211.45312Q91.7 211.45312 90.74687 210.25Q89.62187 208.82812 89.62187 205.59375ZM91.05937 205.59375Q91.05937 208.42188 91.71562 209.35938Q92.3875 210.28125 93.35625 210.28125Q94.325 210.28125 94.98125 209.34375Q95.6375 208.40625 95.6375 205.59375Q95.6375 202.76562 94.98125 201.84375Q94.325 200.90625 93.34062 200.90625Q92.37187 200.90625 91.79375 201.73438Q91.05937 202.78125 91.05937 205.59375Z" fill-rule="nonzero"/><path fill="#757575" d="M87.91875 142.82709L86.5125 142.93646Q86.325 142.10834 85.98125 141.73334Q85.41875 141.13959 84.575 141.13959Q83.90312 141.13959 83.40312 141.51459Q82.73125 141.99896 82.34062 142.93646Q81.96562 143.85834 81.95 145.57709Q82.46562 144.79584 83.2 144.42084Q83.93437 144.04584 84.73125 144.04584Q86.1375 144.04584 87.12187 145.09271Q88.12187 146.12396 88.12187 147.76459Q88.12187 148.84271 87.65312 149.76459Q87.18437 150.68646 86.37187 151.18646Q85.55937 151.68646 84.52812 151.68646Q82.77812 151.68646 81.66875 150.38959Q80.55937 149.09271 80.55937 146.12396Q80.55937 142.79584 81.77812 141.29584Q82.85625 139.98334 84.66875 139.98334Q86.0125 139.98334 86.87187 140.74896Q87.74687 141.49896 87.91875 142.82709ZM82.16875 147.76459Q82.16875 148.49896 82.48125 149.17084Q82.79375 149.82709 83.34062 150.17084Q83.90312 150.51459 84.5125 150.51459Q85.40312 150.51459 86.04375 149.79584Q86.68437 149.07709 86.68437 147.84271Q86.68437 146.65521 86.04375 145.98334Q85.41875 145.29584 84.45 145.29584Q83.49687 145.29584 82.825 145.98334Q82.16875 146.65521 82.16875 147.76459ZM89.62187 145.82709Q89.62187 143.79584 90.02812 142.56146Q90.45 141.32709 91.27812 140.65521Q92.10625 139.98334 93.35625 139.98334Q94.27812 139.98334 94.96562 140.35834Q95.66875 140.71771 96.12187 141.42084Q96.575 142.12396 96.825 143.12396Q97.09062 144.12396 97.09062 145.82709Q97.09062 147.84271 96.66875 149.09271Q96.2625 150.32709 95.43437 151.01459Q94.60625 151.68646 93.35625 151.68646Q91.7 151.68646 90.74687 150.48334Q89.62187 149.06146 89.62187 145.82709ZM91.05937 145.82709Q91.05937 148.65521 91.71562 149.59271Q92.3875 150.51459 93.35625 150.51459Q94.325 150.51459 94.98125 149.57709Q95.6375 148.63959 95.6375 145.82709Q95.6375 142.99896 94.98125 142.07709Q94.325 141.13959 93.34062 141.13959Q92.37187 141.13959 91.79375 141.96771Q91.05937 143.01459 91.05937 145.82709Z" fill-rule="nonzero"/><path fill="#757575" d="M82.77812 85.49792Q81.90312 85.18542 81.48125 84.59167Q81.05937 83.99792 81.05937 83.16979Q81.05937 81.91979 81.95 81.07604Q82.85625 80.21667 84.35625 80.21667Q85.85625 80.21667 86.7625 81.09167Q87.68437 81.95104 87.68437 83.20104Q87.68437 83.99792 87.2625 84.59167Q86.84062 85.18542 85.99687 85.49792Q87.04375 85.84167 87.59062 86.60729Q88.15312 87.37292 88.15312 88.43542Q88.15312 89.90417 87.10625 90.91979Q86.075 91.91979 84.37187 91.91979Q82.68437 91.91979 81.6375 90.91979Q80.60625 89.90417 80.60625 88.40417Q80.60625 87.27917 81.16875 86.52917Q81.73125 85.77917 82.77812 85.49792ZM82.49687 83.12292Q82.49687 83.93542 83.0125 84.45104Q83.54375 84.96667 84.3875 84.96667Q85.2 84.96667 85.71562 84.45104Q86.23125 83.93542 86.23125 83.20104Q86.23125 82.41979 85.7 81.90417Q85.16875 81.37292 84.37187 81.37292Q83.55937 81.37292 83.02812 81.88854Q82.49687 82.40417 82.49687 83.12292ZM82.04375 88.40417Q82.04375 89.01354 82.325 89.57604Q82.62187 90.13854 83.18437 90.45104Q83.74687 90.74792 84.3875 90.74792Q85.40312 90.74792 86.05937 90.10729Q86.71562 89.45104 86.71562 88.45104Q86.71562 87.43542 86.02812 86.77917Q85.35625 86.10729 84.34062 86.10729Q83.35625 86.10729 82.7 86.76354Q82.04375 87.41979 82.04375 88.40417ZM89.62187 86.06042Q89.62187 84.02917 90.02812 82.79479Q90.45 81.56042 91.27812 80.88854Q92.10625 80.21667 93.35625 80.21667Q94.27812 80.21667 94.96562 80.59167Q95.66875 80.95104 96.12187 81.65417Q96.575 82.35729 96.825 83.35729Q97.09062 84.35729 97.09062 86.06042Q97.09062 88.07604 96.66875 89.32604Q96.2625 90.56042 95.43437 91.24792Q94.60625 91.91979 93.35625 91.91979Q91.7 91.91979 90.74687 90.71667Q89.62187 89.29479 89.62187 86.06042ZM91.05937 86.06042Q91.05937 88.88854 91.71562 89.82604Q92.3875 90.74792 93.35625 90.74792Q94.325 90.74792 94.98125 89.81042Q95.6375 88.87292 95.6375 86.06042Q95.6375 83.23229 94.98125 82.31042Q94.325 81.37292 93.34062 81.37292Q92.37187 81.37292 91.79375 82.20104Q91.05937 83.24792 91.05937 86.06042Z" fill-rule="nonzero"/><path fill="#757575" d="M76.91875 31.95L75.5125 31.95L75.5125 22.98125Q74.99687 23.465626 74.16875 23.95Q73.35625 24.434376 72.7 24.684376L72.7 23.325Q73.87187 22.7625 74.74687 21.98125Q75.6375 21.184376 76.0125 20.45L76.91875 20.45L76.91875 31.95ZM80.62187 26.29375Q80.62187 24.2625 81.02812 23.028126Q81.45 21.79375 82.27812 21.121876Q83.10625 20.45 84.35625 20.45Q85.27812 20.45 85.96562 20.825Q86.66875 21.184376 87.12187 21.8875Q87.575 22.590626 87.825 23.590626Q88.09062 24.590626 88.09062 26.29375Q88.09062 28.309376 87.66875 29.559376Q87.2625 30.79375 86.43437 31.48125Q85.60625 32.153126 84.35625 32.153126Q82.7 32.153126 81.74687 30.95Q80.62187 29.528126 80.62187 26.29375ZM82.05937 26.29375Q82.05937 29.121876 82.71562 30.059376Q83.3875 30.98125 84.35625 30.98125Q85.325 30.98125 85.98125 30.04375Q86.6375 29.10625 86.6375 26.29375Q86.6375 23.465626 85.98125 22.54375Q85.325 21.60625 84.34062 21.60625Q83.37187 21.60625 82.79375 22.434376Q82.05937 23.48125 82.05937 26.29375ZM89.62187 26.29375Q89.62187 24.2625 90.02812 23.028126Q90.45 21.79375 91.27812 21.121876Q92.10625 20.45 93.35625 20.45Q94.27812 20.45 94.96562 20.825Q95.66875 21.184376 96.12187 21.8875Q96.575 22.590626 96.825 23.590626Q97.09062 24.590626 97.09062 26.29375Q97.09062 28.309376 96.66875 29.559376Q96.2625 30.79375 95.43437 31.48125Q94.60625 32.153126 93.35625 32.153126Q91.7 32.153126 90.74687 30.95Q89.62187 29.528126 89.62187 26.29375ZM91.05937 26.29375Q91.05937 29.121876 91.71562 30.059376Q92.3875 30.98125 93.35625 30.98125Q94.325 30.98125 94.98125 30.04375Q95.6375 29.10625 95.6375 26.29375Q95.6375 23.465626 94.98125 22.54375Q94.325 21.60625 93.34062 21.60625Q92.37187 21.60625 91.79375 22.434376Q91.05937 23.48125 91.05937 26.29375Z" fill-rule="nonzero"/><path fill="#757575" d="M141.26437 227.39062L141.26437 228.75L133.68625 228.75Q133.67062 228.23438 133.85812 227.76562Q134.13937 227.0 134.78 226.25Q135.42062 225.5 136.62375 224.51562Q138.48312 222.98438 139.13937 222.09375Q139.79562 221.1875 139.79562 220.39062Q139.79562 219.5625 139.20187 218.98438Q138.60812 218.40625 137.63937 218.40625Q136.62375 218.40625 136.01437 219.01562Q135.405 219.625 135.405 220.70312L133.95187 220.5625Q134.10812 218.9375 135.07687 218.09375Q136.04562 217.25 137.67062 217.25Q139.32687 217.25 140.28 218.17188Q141.24875 219.07812 141.24875 220.42188Q141.24875 221.10938 140.9675 221.78125Q140.68625 222.4375 140.03 223.17188Q139.37375 223.90625 137.85812 225.1875Q136.5925 226.25 136.23312 226.64062Q135.87375 227.01562 135.63937 227.39062L141.26437 227.39062ZM142.87375 223.09375Q142.87375 221.0625 143.28 219.82812Q143.70187 218.59375 144.53 217.92188Q145.35812 217.25 146.60812 217.25Q147.53 217.25 148.2175 217.625Q148.92062 217.98438 149.37375 218.6875Q149.82687 219.39062 150.07687 220.39062Q150.3425 221.39062 150.3425 223.09375Q150.3425 225.10938 149.92062 226.35938Q149.51437 227.59375 148.68625 228.28125Q147.85812 228.95312 146.60812 228.95312Q144.95187 228.95312 143.99875 227.75Q142.87375 226.32812 142.87375 223.09375ZM144.31125 223.09375Q144.31125 225.92188 144.9675 226.85938Q145.63937 227.78125 146.60812 227.78125Q147.57687 227.78125 148.23312 226.84375Q148.88937 225.90625 148.88937 223.09375Q148.88937 220.26562 148.23312 219.34375Q147.57687 218.40625 146.5925 218.40625Q145.62375 218.40625 145.04562 219.23438Q144.31125 220.28125 144.31125 223.09375ZM151.87375 223.09375Q151.87375 221.0625 152.28 219.82812Q152.70187 218.59375 153.53 217.92188Q154.35812 217.25 155.60812 217.25Q156.53 217.25 157.2175 217.625Q157.92062 217.98438 158.37375 218.6875Q158.82687 219.39062 159.07687 220.39062Q159.3425 221.39062 159.3425 223.09375Q159.3425 225.10938 158.92062 226.35938Q158.51437 227.59375 157.68625 228.28125Q156.85812 228.95312 155.60812 228.95312Q153.95187 228.95312 152.99875 227.75Q151.87375 226.32812 151.87375 223.09375ZM153.31125 223.09375Q153.31125 225.92188 153.9675 226.85938Q154.63937 227.78125 155.60812 227.78125Q156.57687 227.78125 157.23312 226.84375Q157.88937 225.90625 157.88937 223.09375Q157.88937 220.26562 157.23312 219.34375Q156.57687 218.40625 155.5925 218.40625Q154.62375 218.40625 154.04562 219.23438Q153.31125 220.28125 153.31125 223.09375Z" fill-rule="nonzero"/><path fill="#757575" d="M232.91779 228.75L232.91779 226.0L227.94904 226.0L227.94904 224.71875L233.18341 217.29688L234.32404 217.29688L234.32404 224.71875L235.87091 224.71875L235.87091 226.0L234.32404 226.0L234.32404 228.75L232.91779 228.75ZM232.91779 224.71875L232.91779 219.54688L229.33966 224.71875L232.91779 224.71875ZM237.41779 223.09375Q237.41779 221.0625 237.82404 219.82812Q238.24591 218.59375 239.07404 217.92188Q239.90216 217.25 241.15216 217.25Q242.07404 217.25 242.76154 217.625Q243.46466 217.98438 243.91779 218.6875Q244.37091 219.39062 244.62091 220.39062Q244.88654 221.39062 244.88654 223.09375Q244.88654 225.10938 244.46466 226.35938Q244.05841 227.59375 243.23029 228.28125Q242.40216 228.95312 241.15216 228.95312Q239.49591 228.95312 238.54279 227.75Q237.41779 226.32812 237.41779 223.09375ZM238.85529 223.09375Q238.85529 225.92188 239.51154 226.85938Q240.18341 227.78125 241.15216 227.78125Q242.12091 227.78125 242.77716 226.84375Q243.43341 225.90625 243.43341 223.09375Q243.43341 220.26562 242.77716 219.34375Q242.12091 218.40625 241.13654 218.40625Q240.16779 218.40625 239.58966 219.23438Q238.85529 220.28125 238.85529 223.09375ZM246.41779 223.09375Q246.41779 221.0625 246.82404 219.82812Q247.24591 218.59375 248.07404 217.92188Q248.90216 217.25 250.15216 217.25Q251.07404 217.25 251.76154 217.625Q252.46466 217.98438 252.91779 218.6875Q253.37091 219.39062 253.62091 220.39062Q253.88654 221.39062 253.88654 223.09375Q253.88654 225.10938 253.46466 226.35938Q253.05841 227.59375 252.23029 228.28125Q251.40216 228.95312 250.15216 228.95312Q248.49591 228.95312 247.54279 227.75Q246.41779 226.32812 246.41779 223.09375ZM247.85529 223.09375Q247.85529 225.92188 248.51154 226.85938Q249.18341 227.78125 250.15216 227.78125Q251.12091 227.78125 251.77716 226.84375Q252.43341 225.90625 252.43341 223.09375Q252.43341 220.26562 251.77716 219.34375Q251.12091 218.40625 250.13654 218.40625Q249.16779 218.40625 248.58966 219.23438Q247.85529 220.28125 247.85529 223.09375Z" fill-rule="nonzero"/><path fill="#757575" d="M330.2587 220.09375L328.85245 220.20312Q328.66495 219.375 328.3212 219.0Q327.7587 218.40625 326.91495 218.40625Q326.24307 218.40625 325.74307 218.78125Q325.0712 219.26562 324.68057 220.20312Q324.30557 221.125 324.28995 222.84375Q324.80557 222.0625 325.53995 221.6875Q326.27432 221.3125 327.0712 221.3125Q328.47745 221.3125 329.46182 222.35938Q330.46182 223.39062 330.46182 225.03125Q330.46182 226.10938 329.99307 227.03125Q329.52432 227.95312 328.71182 228.45312Q327.89932 228.95312 326.86807 228.95312Q325.11807 228.95312 324.0087 227.65625Q322.89932 226.35938 322.89932 223.39062Q322.89932 220.0625 324.11807 218.5625Q325.1962 217.25 327.0087 217.25Q328.35245 217.25 329.21182 218.01562Q330.08682 218.76562 330.2587 220.09375ZM324.5087 225.03125Q324.5087 225.76562 324.8212 226.4375Q325.1337 227.09375 325.68057 227.4375Q326.24307 227.78125 326.85245 227.78125Q327.74307 227.78125 328.3837 227.0625Q329.02432 226.34375 329.02432 225.10938Q329.02432 223.92188 328.3837 223.25Q327.7587 222.5625 326.78995 222.5625Q325.83682 222.5625 325.16495 223.25Q324.5087 223.92188 324.5087 225.03125ZM331.96182 223.09375Q331.96182 221.0625 332.36807 219.82812Q332.78995 218.59375 333.61807 217.92188Q334.4462 217.25 335.6962 217.25Q336.61807 217.25 337.30557 217.625Q338.0087 217.98438 338.46182 218.6875Q338.91495 219.39062 339.16495 220.39062Q339.43057 221.39062 339.43057 223.09375Q339.43057 225.10938 339.0087 226.35938Q338.60245 227.59375 337.77432 228.28125Q336.9462 228.95312 335.6962 228.95312Q334.03995 228.95312 333.08682 227.75Q331.96182 226.32812 331.96182 223.09375ZM333.39932 223.09375Q333.39932 225.92188 334.05557 226.85938Q334.72745 227.78125 335.6962 227.78125Q336.66495 227.78125 337.3212 226.84375Q337.97745 225.90625 337.97745 223.09375Q337.97745 220.26562 337.3212 219.34375Q336.66495 218.40625 335.68057 218.40625Q334.71182 218.40625 334.1337 219.23438Q333.39932 220.28125 333.39932 223.09375ZM340.96182 223.09375Q340.96182 221.0625 341.36807 219.82812Q341.78995 218.59375 342.61807 217.92188Q343.4462 217.25 344.6962 217.25Q345.61807 217.25 346.30557 217.625Q347.0087 217.98438 347.46182 218.6875Q347.91495 219.39062 348.16495 220.39062Q348.43057 221.39062 348.43057 223.09375Q348.43057 225.10938 348.0087 226.35938Q347.60245 227.59375 346.77432 228.28125Q345.9462 228.95312 344.6962 228.95312Q343.03995 228.95312 342.08682 227.75Q340.96182 226.32812 340.96182 223.09375ZM342.39932 223.09375Q342.39932 225.92188 343.05557 226.85938Q343.72745 227.78125 344.6962 227.78125Q345.66495 227.78125 346.3212 226.84375Q346.97745 225.90625 346.97745 223.09375Q346.97745 220.26562 346.3212 219.34375Q345.66495 218.40625 344.68057 218.40625Q343.71182 218.40625 343.1337 219.23438Q342.39932 220.28125 342.39932 223.09375Z" fill-rule="nonzero"/><path fill="#757575" d="M419.6621 222.53125Q418.7871 222.21875 418.36523 221.625Q417.94336 221.03125 417.94336 220.20312Q417.94336 218.95312 418.83398 218.10938Q419.74023 217.25 421.24023 217.25Q422.74023 217.25 423.64648 218.125Q424.56836 218.98438 424.56836 220.23438Q424.56836 221.03125 424.14648 221.625Q423.7246 222.21875 422.88086 222.53125Q423.92773 222.875 424.4746 223.64062Q425.0371 224.40625 425.0371 225.46875Q425.0371 226.9375 423.99023 227.95312Q422.95898 228.95312 421.25586 228.95312Q419.56836 228.95312 418.52148 227.95312Q417.49023 226.9375 417.49023 225.4375Q417.49023 224.3125 418.05273 223.5625Q418.61523 222.8125 419.6621 222.53125ZM419.38086 220.15625Q419.38086 220.96875 419.89648 221.48438Q420.42773 222.0 421.27148 222.0Q422.08398 222.0 422.5996 221.48438Q423.11523 220.96875 423.11523 220.23438Q423.11523 219.45312 422.58398 218.9375Q422.05273 218.40625 421.25586 218.40625Q420.44336 218.40625 419.9121 218.92188Q419.38086 219.4375 419.38086 220.15625ZM418.92773 225.4375Q418.92773 226.04688 419.20898 226.60938Q419.50586 227.17188 420.06836 227.48438Q420.63086 227.78125 421.27148 227.78125Q422.2871 227.78125 422.94336 227.14062Q423.5996 226.48438 423.5996 225.48438Q423.5996 224.46875 422.9121 223.8125Q422.24023 223.14062 421.2246 223.14062Q420.24023 223.14062 419.58398 223.79688Q418.92773 224.45312 418.92773 225.4375ZM426.50586 223.09375Q426.50586 221.0625 426.9121 219.82812Q427.33398 218.59375 428.1621 217.92188Q428.99023 217.25 430.24023 217.25Q431.1621 217.25 431.8496 217.625Q432.55273 217.98438 433.00586 218.6875Q433.45898 219.39062 433.70898 220.39062Q433.9746 221.39062 433.9746 223.09375Q433.9746 225.10938 433.55273 226.35938Q433.14648 227.59375 432.31836 228.28125Q431.49023 228.95312 430.24023 228.95312Q428.58398 228.95312 427.63086 227.75Q426.50586 226.32812 426.50586 223.09375ZM427.94336 223.09375Q427.94336 225.92188 428.5996 226.85938Q429.27148 227.78125 430.24023 227.78125Q431.20898 227.78125 431.86523 226.84375Q432.52148 225.90625 432.52148 223.09375Q432.52148 220.26562 431.86523 219.34375Q431.20898 218.40625 430.2246 218.40625Q429.25586 218.40625 428.67773 219.23438Q427.94336 220.28125 427.94336 223.09375ZM435.50586 223.09375Q435.50586 221.0625 435.9121 219.82812Q436.33398 218.59375 437.1621 217.92188Q437.99023 217.25 439.24023 217.25Q440.1621 217.25 440.8496 217.625Q441.55273 217.98438 442.00586 218.6875Q442.45898 219.39062 442.70898 220.39062Q442.9746 221.39062 442.9746 223.09375Q442.9746 225.10938 442.55273 226.35938Q442.14648 227.59375 441.31836 228.28125Q440.49023 228.95312 439.24023 228.95312Q437.58398 228.95312 436.63086 227.75Q435.50586 226.32812 435.50586 223.09375ZM436.94336 223.09375Q436.94336 225.92188 437.5996 226.85938Q438.27148 227.78125 439.24023 227.78125Q440.20898 227.78125 440.86523 226.84375Q441.52148 225.90625 441.52148 223.09375Q441.52148 220.26562 440.86523 219.34375Q440.20898 218.40625 439.2246 218.40625Q438.25586 218.40625 437.67773 219.23438Q436.94336 220.28125 436.94336 223.09375Z" fill-rule="nonzero"/><path fill="#004586" d="M52.0 310.05C52.0 313.3637 49.31371 316.05 46.0 316.05C42.68629 316.05 40.0 313.3637 40.0 310.05C40.0 306.7363 42.68629 304.05 46.0 304.05C49.31371 304.05 52.0 306.7363 52.0 310.05Z" fill-rule="nonzero"/><path fill="#757575" d="M61.296875 317.05L61.296875 306.675L62.875 306.675L62.875 308.2531Q63.484375 307.14374 64.0 306.8Q64.515625 306.4406 65.125 306.4406Q66.015625 306.4406 66.9375 307.0031L66.328125 308.64374Q65.6875 308.2531 65.046875 308.2531Q64.46875 308.2531 64.0 308.6125Q63.546875 308.95624 63.34375 309.5656Q63.0625 310.5031 63.0625 311.6125L63.0625 317.05L61.296875 317.05ZM75.09375 315.76874Q74.109375 316.59686 73.203125 316.9406Q72.296875 317.28436 71.265625 317.28436Q69.5625 317.28436 68.640625 316.45624Q67.71875 315.6125 67.71875 314.3156Q67.71875 313.55 68.0625 312.925Q68.421875 312.3 68.984375 311.925Q69.546875 311.53436 70.25 311.33124Q70.765625 311.20624 71.8125 311.0656Q73.9375 310.8156 74.9375 310.47186Q74.953125 310.1125 74.953125 310.0031Q74.953125 308.9406 74.453125 308.4875Q73.78125 307.89374 72.453125 307.89374Q71.203125 307.89374 70.609375 308.33124Q70.03125 308.76874 69.75 309.8781L68.03125 309.64374Q68.265625 308.53436 68.796875 307.8625Q69.328125 307.175 70.34375 306.8156Q71.359375 306.4406 72.703125 306.4406Q74.03125 306.4406 74.859375 306.7531Q75.6875 307.0656 76.078125 307.55Q76.46875 308.01874 76.625 308.7375Q76.71875 309.1906 76.71875 310.3625L76.71875 312.70624Q76.71875 315.15936 76.828125 315.8156Q76.9375 316.45624 77.28125 317.05L75.4375 317.05Q75.171875 316.5031 75.09375 315.76874ZM74.9375 311.84686Q73.984375 312.2375 72.0625 312.5031Q70.984375 312.65936 70.53125 312.8625Q70.09375 313.05 69.84375 313.425Q69.59375 313.8 69.59375 314.26874Q69.59375 314.97186 70.125 315.4406Q70.65625 315.90936 71.6875 315.90936Q72.703125 315.90936 73.484375 315.47186Q74.28125 315.01874 74.65625 314.2531Q74.9375 313.64374 74.9375 312.4875L74.9375 311.84686ZM81.234375 317.05L78.0625 306.675L79.875 306.675L81.53125 312.65936L82.140625 314.89374Q82.1875 314.72186 82.671875 312.7531L84.328125 306.675L86.140625 306.675L87.6875 312.6906L88.203125 314.675L88.796875 312.675L90.578125 306.675L92.28125 306.675L89.046875 317.05L87.21875 317.05L85.5625 310.83124L85.171875 309.0656L83.0625 317.05L81.234375 317.05ZM106.046875 317.05L106.046875 315.7375Q105.0625 317.28436 103.140625 317.28436Q101.90625 317.28436 100.859375 316.59686Q99.828125 315.90936 99.25 314.6906Q98.6875 313.47186 98.6875 311.8781Q98.6875 310.3156 99.203125 309.05Q99.71875 307.78436 100.75 307.1125Q101.796875 306.4406 103.0625 306.4406Q104.0 306.4406 104.734375 306.84686Q105.46875 307.2375 105.9375 307.8625L105.9375 302.7375L107.671875 302.7375L107.671875 317.05L106.046875 317.05ZM100.484375 311.8781Q100.484375 313.8625 101.328125 314.84686Q102.171875 315.83124 103.3125 315.83124Q104.46875 315.83124 105.265625 314.89374Q106.078125 313.95624 106.078125 312.01874Q106.078125 309.89374 105.25 308.89374Q104.4375 307.89374 103.234375 307.89374Q102.0625 307.89374 101.265625 308.8625Q100.484375 309.8156 100.484375 311.8781ZM117.09375 315.76874Q116.109375 316.59686 115.203125 316.9406Q114.296875 317.28436 113.265625 317.28436Q111.5625 317.28436 110.640625 316.45624Q109.71875 315.6125 109.71875 314.3156Q109.71875 313.55 110.0625 312.925Q110.421875 312.3 110.984375 311.925Q111.546875 311.53436 112.25 311.33124Q112.765625 311.20624 113.8125 311.0656Q115.9375 310.8156 116.9375 310.47186Q116.953125 310.1125 116.953125 310.0031Q116.953125 308.9406 116.453125 308.4875Q115.78125 307.89374 114.453125 307.89374Q113.203125 307.89374 112.609375 308.33124Q112.03125 308.76874 111.75 309.8781L110.03125 309.64374Q110.265625 308.53436 110.796875 307.8625Q111.328125 307.175 112.34375 306.8156Q113.359375 306.4406 114.703125 306.4406Q116.03125 306.4406 116.859375 306.7531Q117.6875 307.0656 118.078125 307.55Q118.46875 308.01874 118.625 308.7375Q118.71875 309.1906 118.71875 310.3625L118.71875 312.70624Q118.71875 315.15936 118.828125 315.8156Q118.9375 316.45624 119.28125 317.05L117.4375 317.05Q117.171875 316.5031 117.09375 315.76874ZM116.9375 311.84686Q115.984375 312.2375 114.0625 312.5031Q112.984375 312.65936 112.53125 312.8625Q112.09375 313.05 111.84375 313.425Q111.59375 313.8 111.59375 314.26874Q111.59375 314.97186 112.125 315.4406Q112.65625 315.90936 113.6875 315.90936Q114.703125 315.90936 115.484375 315.47186Q116.28125 315.01874 116.65625 314.2531Q116.9375 313.64374 116.9375 312.4875L116.9375 311.84686ZM125.15625 315.47186L125.40625 317.03436Q124.671875 317.1906 124.078125 317.1906Q123.125 317.1906 122.59375 316.89374Q122.078125 316.58124 121.859375 316.09686Q121.640625 315.59686 121.640625 314.01874L121.640625 308.05L120.359375 308.05L120.359375 306.675L121.640625 306.675L121.640625 304.1125L123.390625 303.05L123.390625 306.675L125.15625 306.675L125.15625 308.05L123.390625 308.05L123.390625 314.1125Q123.390625 314.8625 123.484375 315.08124Q123.578125 315.28436 123.78125 315.425Q124.0 315.55 124.390625 315.55Q124.671875 315.55 125.15625 315.47186ZM134.09375 315.76874Q133.10938 316.59686 132.20312 316.9406Q131.29688 317.28436 130.26562 317.28436Q128.5625 317.28436 127.640625 316.45624Q126.71875 315.6125 126.71875 314.3156Q126.71875 313.55 127.0625 312.925Q127.421875 312.3 127.984375 311.925Q128.54688 311.53436 129.25 311.33124Q129.76562 311.20624 130.8125 311.0656Q132.9375 310.8156 133.9375 310.47186Q133.95312 310.1125 133.95312 310.0031Q133.95312 308.9406 133.45312 308.4875Q132.78125 307.89374 131.45312 307.89374Q130.20312 307.89374 129.60938 308.33124Q129.03125 308.76874 128.75 309.8781L127.03125 309.64374Q127.265625 308.53436 127.796875 307.8625Q128.32812 307.175 129.34375 306.8156Q130.35938 306.4406 131.70312 306.4406Q133.03125 306.4406 133.85938 306.7531Q134.6875 307.0656 135.07812 307.55Q135.46875 308.01874 135.625 308.7375Q135.71875 309.1906 135.71875 310.3625L135.71875 312.70624Q135.71875 315.15936 135.82812 315.8156Q135.9375 316.45624 136.28125 317.05L134.4375 317.05Q134.17188 316.5031 134.09375 315.76874ZM133.9375 311.84686Q132.98438 312.2375 131.0625 312.5031Q129.98438 312.65936 129.53125 312.8625Q129.09375 313.05 128.84375 313.425Q128.59375 313.8 128.59375 314.26874Q128.59375 314.97186 129.125 315.4406Q129.65625 315.90936 130.6875 315.90936Q131.70312 315.90936 132.48438 315.47186Q133.28125 315.01874 133.65625 314.2531Q133.9375 313.64374 133.9375 312.4875L133.9375 311.84686ZM142.96875 317.05L148.46875 302.7375L150.51562 302.7375L156.375 317.05L154.21875 317.05L152.54688 312.70624L146.5625 312.70624L144.98438 317.05L142.96875 317.05ZM147.10938 311.175L151.95312 311.175L150.46875 307.20624Q149.78125 305.39374 149.45312 304.2375Q149.17188 305.6125 148.67188 306.97186L147.10938 311.175ZM160.20312 317.05L156.25 306.675L158.10938 306.675L160.34375 312.89374Q160.70312 313.89374 161.0 314.97186Q161.23438 314.15936 161.65625 313.0031L163.95312 306.675L165.76562 306.675L161.84375 317.05L160.20312 317.05ZM174.42188 313.70624L176.23438 313.9406Q175.8125 315.51874 174.64062 316.40936Q173.48438 317.28436 171.67188 317.28436Q169.40625 317.28436 168.0625 315.89374Q166.73438 314.4875 166.73438 311.95624Q166.73438 309.33124 168.07812 307.89374Q169.42188 306.4406 171.57812 306.4406Q173.65625 306.4406 174.96875 307.8625Q176.29688 309.26874 176.29688 311.84686Q176.29688 312.0031 176.28125 312.3156L168.54688 312.3156Q168.64062 314.01874 169.51562 314.925Q170.39062 315.83124 171.6875 315.83124Q172.65625 315.83124 173.32812 315.33124Q174.01562 314.8156 174.42188 313.70624ZM168.64062 310.8625L174.4375 310.8625Q174.32812 309.5656 173.78125 308.90936Q172.9375 307.89374 171.59375 307.89374Q170.39062 307.89374 169.5625 308.70624Q168.73438 309.5031 168.64062 310.8625ZM178.29688 317.05L178.29688 306.675L179.875 306.675L179.875 308.2531Q180.48438 307.14374 181.0 306.8Q181.51562 306.4406 182.125 306.4406Q183.01562 306.4406 183.9375 307.0031L183.32812 308.64374Q182.6875 308.2531 182.04688 308.2531Q181.46875 308.2531 181.0 308.6125Q180.54688 308.95624 180.34375 309.5656Q180.0625 310.5031 180.0625 311.6125L180.0625 317.05L178.29688 317.05ZM192.09375 315.76874Q191.10938 316.59686 190.20312 316.9406Q189.29688 317.28436 188.26562 317.28436Q186.5625 317.28436 185.64062 316.45624Q184.71875 315.6125 184.71875 314.3156Q184.71875 313.55 185.0625 312.925Q185.42188 312.3 185.98438 311.925Q186.54688 311.53436 187.25 311.33124Q187.76562 311.20624 188.8125 311.0656Q190.9375 310.8156 191.9375 310.47186Q191.95312 310.1125 191.95312 310.0031Q191.95312 308.9406 191.45312 308.4875Q190.78125 307.89374 189.45312 307.89374Q188.20312 307.89374 187.60938 308.33124Q187.03125 308.76874 186.75 309.8781L185.03125 309.64374Q185.26562 308.53436 185.79688 307.8625Q186.32812 307.175 187.34375 306.8156Q188.35938 306.4406 189.70312 306.4406Q191.03125 306.4406 191.85938 306.7531Q192.6875 307.0656 193.07812 307.55Q193.46875 308.01874 193.625 308.7375Q193.71875 309.1906 193.71875 310.3625L193.71875 312.70624Q193.71875 315.15936 193.82812 315.8156Q193.9375 316.45624 194.28125 317.05L192.4375 317.05Q192.17188 316.5031 192.09375 315.76874ZM191.9375 311.84686Q190.98438 312.2375 189.0625 312.5031Q187.98438 312.65936 187.53125 312.8625Q187.09375 313.05 186.84375 313.425Q186.59375 313.8 186.59375 314.26874Q186.59375 314.97186 187.125 315.4406Q187.65625 315.90936 188.6875 315.90936Q189.70312 315.90936 190.48438 315.47186Q191.28125 315.01874 191.65625 314.2531Q191.9375 313.64374 191.9375 312.4875L191.9375 311.84686ZM196.0 317.90936L197.70312 318.15936Q197.8125 318.95624 198.29688 319.3156Q198.95312 319.8 200.09375 319.8Q201.3125 319.8 201.96875 319.3156Q202.64062 318.83124 202.875 317.95624Q203.01562 317.40936 203.0 315.6906Q201.84375 317.05 200.125 317.05Q197.98438 317.05 196.8125 315.5031Q195.64062 313.95624 195.64062 311.8Q195.64062 310.3156 196.17188 309.0656Q196.71875 307.8156 197.73438 307.1281Q198.76562 306.4406 200.14062 306.4406Q201.96875 306.4406 203.17188 307.925L203.17188 306.675L204.78125 306.675L204.78125 315.64374Q204.78125 318.0656 204.28125 319.0656Q203.79688 320.08124 202.71875 320.65936Q201.65625 321.2531 200.09375 321.2531Q198.25 321.2531 197.09375 320.425Q195.95312 319.59686 196.0 317.90936ZM197.45312 311.675Q197.45312 313.72186 198.26562 314.65936Q199.07812 315.59686 200.29688 315.59686Q201.5 315.59686 202.3125 314.65936Q203.14062 313.72186 203.14062 311.7375Q203.14062 309.83124 202.29688 308.8625Q201.45312 307.89374 200.26562 307.89374Q199.09375 307.89374 198.26562 308.84686Q197.45312 309.8 197.45312 311.675ZM214.42188 313.70624L216.23438 313.9406Q215.8125 315.51874 214.64062 316.40936Q213.48438 317.28436 211.67188 317.28436Q209.40625 317.28436 208.0625 315.89374Q206.73438 314.4875 206.73438 311.95624Q206.73438 309.33124 208.07812 307.89374Q209.42188 306.4406 211.57812 306.4406Q213.65625 306.4406 214.96875 307.8625Q216.29688 309.26874 216.29688 311.84686Q216.29688 312.0031 216.28125 312.3156L208.54688 312.3156Q208.64062 314.01874 209.51562 314.925Q210.39062 315.83124 211.6875 315.83124Q212.65625 315.83124 213.32812 315.33124Q214.01562 314.8156 214.42188 313.70624ZM208.64062 310.8625L214.4375 310.8625Q214.32812 309.5656 213.78125 308.90936Q212.9375 307.89374 211.59375 307.89374Q210.39062 307.89374 209.5625 308.70624Q208.73438 309.5031 208.64062 310.8625Z" fill-rule="nonzero"/><path fill="#ff420e" d="M239.0 304.05L244.19615 313.05L233.80385 313.05Z" fill-rule="nonzero"/><path fill="#757575" d="M254.64062 317.05L254.64062 302.7375L264.29688 302.7375L264.29688 304.425L256.53125 304.425L256.53125 308.8625L263.25 308.8625L263.25 310.55L256.53125 310.55L256.53125 317.05L254.64062 317.05ZM266.64062 317.05L266.64062 302.7375L276.29688 302.7375L276.29688 304.425L268.53125 304.425L268.53125 308.8625L275.25 308.8625L275.25 310.55L268.53125 310.55L268.53125 317.05L266.64062 317.05ZM282.1875 317.05L282.1875 304.425L277.46875 304.425L277.46875 302.7375L288.8125 302.7375L288.8125 304.425L284.07812 304.425L284.07812 317.05L282.1875 317.05ZM303.04688 317.05L303.04688 315.7375Q302.0625 317.28436 300.14062 317.28436Q298.90625 317.28436 297.85938 316.59686Q296.82812 315.90936 296.25 314.6906Q295.6875 313.47186 295.6875 311.8781Q295.6875 310.3156 296.20312 309.05Q296.71875 307.78436 297.75 307.1125Q298.79688 306.4406 300.0625 306.4406Q301.0 306.4406 301.73438 306.84686Q302.46875 307.2375 302.9375 307.8625L302.9375 302.7375L304.67188 302.7375L304.67188 317.05L303.04688 317.05ZM297.48438 311.8781Q297.48438 313.8625 298.32812 314.84686Q299.17188 315.83124 300.3125 315.83124Q301.46875 315.83124 302.26562 314.89374Q303.07812 313.95624 303.07812 312.01874Q303.07812 309.89374 302.25 308.89374Q301.4375 307.89374 300.23438 307.89374Q299.0625 307.89374 298.26562 308.8625Q297.48438 309.8156 297.48438 311.8781ZM314.09375 315.76874Q313.10938 316.59686 312.20312 316.9406Q311.29688 317.28436 310.26562 317.28436Q308.5625 317.28436 307.64062 316.45624Q306.71875 315.6125 306.71875 314.3156Q306.71875 313.55 307.0625 312.925Q307.42188 312.3 307.98438 311.925Q308.54688 311.53436 309.25 311.33124Q309.76562 311.20624 310.8125 311.0656Q312.9375 310.8156 313.9375 310.47186Q313.95312 310.1125 313.95312 310.0031Q313.95312 308.9406 313.45312 308.4875Q312.78125 307.89374 311.45312 307.89374Q310.20312 307.89374 309.60938 308.33124Q309.03125 308.76874 308.75 309.8781L307.03125 309.64374Q307.26562 308.53436 307.79688 307.8625Q308.32812 307.175 309.34375 306.8156Q310.35938 306.4406 311.70312 306.4406Q313.03125 306.4406 313.85938 306.7531Q314.6875 307.0656 315.07812 307.55Q315.46875 308.01874 315.625 308.7375Q315.71875 309.1906 315.71875 310.3625L315.71875 312.70624Q315.71875 315.15936 315.82812 315.8156Q315.9375 316.45624 316.28125 317.05L314.4375 317.05Q314.17188 316.5031 314.09375 315.76874ZM313.9375 311.84686Q312.98438 312.2375 311.0625 312.5031Q309.98438 312.65936 309.53125 312.8625Q309.09375 313.05 308.84375 313.425Q308.59375 313.8 308.59375 314.26874Q308.59375 314.97186 309.125 315.4406Q309.65625 315.90936 310.6875 315.90936Q311.70312 315.90936 312.48438 315.47186Q313.28125 315.01874 313.65625 314.2531Q313.9375 313.64374 313.9375 312.4875L313.9375 311.84686ZM322.15625 315.47186L322.40625 317.03436Q321.67188 317.1906 321.07812 317.1906Q320.125 317.1906 319.59375 316.89374Q319.07812 316.58124 318.85938 316.09686Q318.64062 315.59686 318.64062 314.01874L318.64062 308.05L317.35938 308.05L317.35938 306.675L318.64062 306.675L318.64062 304.1125L320.39062 303.05L320.39062 306.675L322.15625 306.675L322.15625 308.05L320.39062 308.05L320.39062 314.1125Q320.39062 314.8625 320.48438 315.08124Q320.57812 315.28436 320.78125 315.425Q321.0 315.55 321.39062 315.55Q321.67188 315.55 322.15625 315.47186ZM331.09375 315.76874Q330.10938 316.59686 329.20312 316.9406Q328.29688 317.28436 327.26562 317.28436Q325.5625 317.28436 324.64062 316.45624Q323.71875 315.6125 323.71875 314.3156Q323.71875 313.55 324.0625 312.925Q324.42188 312.3 324.98438 311.925Q325.54688 311.53436 326.25 311.33124Q326.76562 311.20624 327.8125 311.0656Q329.9375 310.8156 330.9375 310.47186Q330.95312 310.1125 330.95312 310.0031Q330.95312 308.9406 330.45312 308.4875Q329.78125 307.89374 328.45312 307.89374Q327.20312 307.89374 326.60938 308.33124Q326.03125 308.76874 325.75 309.8781L324.03125 309.64374Q324.26562 308.53436 324.79688 307.8625Q325.32812 307.175 326.34375 306.8156Q327.35938 306.4406 328.70312 306.4406Q330.03125 306.4406 330.85938 306.7531Q331.6875 307.0656 332.07812 307.55Q332.46875 308.01874 332.625 308.7375Q332.71875 309.1906 332.71875 310.3625L332.71875 312.70624Q332.71875 315.15936 332.82812 315.8156Q332.9375 316.45624 333.28125 317.05L331.4375 317.05Q331.17188 316.5031 331.09375 315.76874ZM330.9375 311.84686Q329.98438 312.2375 328.0625 312.5031Q326.98438 312.65936 326.53125 312.8625Q326.09375 313.05 325.84375 313.425Q325.59375 313.8 325.59375 314.26874Q325.59375 314.97186 326.125 315.4406Q326.65625 315.90936 327.6875 315.90936Q328.70312 315.90936 329.48438 315.47186Q330.28125 315.01874 330.65625 314.2531Q330.9375 313.64374 330.9375 312.4875L330.9375 311.84686ZM339.96875 317.05L345.46875 302.7375L347.51562 302.7375L353.375 317.05L351.21875 317.05L349.54688 312.70624L343.5625 312.70624L341.98438 317.05L339.96875 317.05ZM344.10938 311.175L348.95312 311.175L347.46875 307.20624Q346.78125 305.39374 346.45312 304.2375Q346.17188 305.6125 345.67188 306.97186L344.10938 311.175ZM357.20312 317.05L353.25 306.675L355.10938 306.675L357.34375 312.89374Q357.70312 313.89374 358.0 314.97186Q358.23438 314.15936 358.65625 313.0031L360.95312 306.675L362.76562 306.675L358.84375 317.05L357.20312 317.05ZM371.42188 313.70624L373.23438 313.9406Q372.8125 315.51874 371.64062 316.40936Q370.48438 317.28436 368.67188 317.28436Q366.40625 317.28436 365.0625 315.89374Q363.73438 314.4875 363.73438 311.95624Q363.73438 309.33124 365.07812 307.89374Q366.42188 306.4406 368.57812 306.4406Q370.65625 306.4406 371.96875 307.8625Q373.29688 309.26874 373.29688 311.84686Q373.29688 312.0031 373.28125 312.3156L365.54688 312.3156Q365.64062 314.01874 366.51562 314.925Q367.39062 315.83124 368.6875 315.83124Q369.65625 315.83124 370.32812 315.33124Q371.01562 314.8156 371.42188 313.70624ZM365.64062 310.8625L371.4375 310.8625Q371.32812 309.5656 370.78125 308.90936Q369.9375 307.89374 368.59375 307.89374Q367.39062 307.89374 366.5625 308.70624Q365.73438 309.5031 365.64062 310.8625ZM375.29688 317.05L375.29688 306.675L376.875 306.675L376.875 308.2531Q377.48438 307.14374 378.0 306.8Q378.51562 306.4406 379.125 306.4406Q380.01562 306.4406 380.9375 307.0031L380.32812 308.64374Q379.6875 308.2531 379.04688 308.2531Q378.46875 308.2531 378.0 308.6125Q377.54688 308.95624 377.34375 309.5656Q377.0625 310.5031 377.0625 311.6125L377.0625 317.05L375.29688 317.05ZM389.09375 315.76874Q388.10938 316.59686 387.20312 316.9406Q386.29688 317.28436 385.26562 317.28436Q383.5625 317.28436 382.64062 316.45624Q381.71875 315.6125 381.71875 314.3156Q381.71875 313.55 382.0625 312.925Q382.42188 312.3 382.98438 311.925Q383.54688 311.53436 384.25 311.33124Q384.76562 311.20624 385.8125 311.0656Q387.9375 310.8156 388.9375 310.47186Q388.95312 310.1125 388.95312 310.0031Q388.95312 308.9406 388.45312 308.4875Q387.78125 307.89374 386.45312 307.89374Q385.20312 307.89374 384.60938 308.33124Q384.03125 308.76874 383.75 309.8781L382.03125 309.64374Q382.26562 308.53436 382.79688 307.8625Q383.32812 307.175 384.34375 306.8156Q385.35938 306.4406 386.70312 306.4406Q388.03125 306.4406 388.85938 306.7531Q389.6875 307.0656 390.07812 307.55Q390.46875 308.01874 390.625 308.7375Q390.71875 309.1906 390.71875 310.3625L390.71875 312.70624Q390.71875 315.15936 390.82812 315.8156Q390.9375 316.45624 391.28125 317.05L389.4375 317.05Q389.17188 316.5031 389.09375 315.76874ZM388.9375 311.84686Q387.98438 312.2375 386.0625 312.5031Q384.98438 312.65936 384.53125 312.8625Q384.09375 313.05 383.84375 313.425Q383.59375 313.8 383.59375 314.26874Q383.59375 314.97186 384.125 315.4406Q384.65625 315.90936 385.6875 315.90936Q386.70312 315.90936 387.48438 315.47186Q388.28125 315.01874 388.65625 314.2531Q388.9375 313.64374 388.9375 312.4875L388.9375 311.84686ZM393.0 317.90936L394.70312 318.15936Q394.8125 318.95624 395.29688 319.3156Q395.95312 319.8 397.09375 319.8Q398.3125 319.8 398.96875 319.3156Q399.64062 318.83124 399.875 317.95624Q400.01562 317.40936 400.0 315.6906Q398.84375 317.05 397.125 317.05Q394.98438 317.05 393.8125 315.5031Q392.64062 313.95624 392.64062 311.8Q392.64062 310.3156 393.17188 309.0656Q393.71875 307.8156 394.73438 307.1281Q395.76562 306.4406 397.14062 306.4406Q398.96875 306.4406 400.17188 307.925L400.17188 306.675L401.78125 306.675L401.78125 315.64374Q401.78125 318.0656 401.28125 319.0656Q400.79688 320.08124 399.71875 320.65936Q398.65625 321.2531 397.09375 321.2531Q395.25 321.2531 394.09375 320.425Q392.95312 319.59686 393.0 317.90936ZM394.45312 311.675Q394.45312 313.72186 395.26562 314.65936Q396.07812 315.59686 397.29688 315.59686Q398.5 315.59686 399.3125 314.65936Q400.14062 313.72186 400.14062 311.7375Q400.14062 309.83124 399.29688 308.8625Q398.45312 307.89374 397.26562 307.89374Q396.09375 307.89374 395.26562 308.84686Q394.45312 309.8 394.45312 311.675ZM411.42188 313.70624L413.23438 313.9406Q412.8125 315.51874 411.64062 316.40936Q410.48438 317.28436 408.67188 317.28436Q406.40625 317.28436 405.0625 315.89374Q403.73438 314.4875 403.73438 311.95624Q403.73438 309.33124 405.07812 307.89374Q406.42188 306.4406 408.57812 306.4406Q410.65625 306.4406 411.96875 307.8625Q413.29688 309.26874 413.29688 311.84686Q413.29688 312.0031 413.28125 312.3156L405.54688 312.3156Q405.64062 314.01874 406.51562 314.925Q407.39062 315.83124 408.6875 315.83124Q409.65625 315.83124 410.32812 315.33124Q411.01562 314.8156 411.42188 313.70624ZM405.64062 310.8625L411.4375 310.8625Q411.32812 309.5656 410.78125 308.90936Q409.9375 307.89374 408.59375 307.89374Q407.39062 307.89374 406.5625 308.70624Q405.73438 309.5031 405.64062 310.8625Z" fill-rule="nonzero"/></svg>