<svg version="1.1" viewBox="0.0 0.0 454.0 339.0" fill="none" stroke="none" stroke-linecap="square" stroke-miterlimit="10" width="454" height="339" xmlns:xlink="http://www.w3.org/1999/xlink" xmlns="http://www.w3.org/2000/svg"><path fill="#ffffff" d="M0 0L454.0 0L454.0 339.0L0 339.0L0 0Z" fill-rule="nonzero"/><path stroke="#b3b3b3" stroke-width="1.0" stroke-linecap="butt" d="M105.5 205.5L437.5 205.5" fill-rule="nonzero"/><path stroke="#b3b3b3" stroke-width="1.0" stroke-linecap="butt" d="M105.5 145.5L437.5 145.5" fill-rule="nonzero"/><path stroke="#b3b3b3" stroke-width="1.0" stroke-linecap="butt" d="M105.5 86.5L437.5 86.5" fill-rule="nonzero"/><path stroke="#b3b3b3" stroke-width="1.0" stroke-linecap="butt" d="M105.5 26.5L437.5 26.5" fill-rule="nonzero"/><path stroke="#d9d9d9" stroke-width="1.0" stroke-linecap="butt" d="M105.5 160.5L437.5 160.5" fill-rule="nonzero"/><path stroke="#d9d9d9" stroke-width="1.0" stroke-linecap="butt" d="M105.5 175.5L437.5 175.5" fill-rule="nonzero"/><path stroke="#d9d9d9" stroke-width="1.0" stroke-linecap="butt" d="M105.5 190.5L437.5 190.5" fill-rule="nonzero"/><path stroke="#d9d9d9" stroke-width="1.0" stroke-linecap="butt" d="M105.5 101.5L437.5 101.5" fill-rule="nonzero"/><path stroke="#d9d9d9" stroke-width="1.0" stroke-linecap="butt" d="M105.5 116.5L437.5 116.5" fill-rule="nonzero"/><path stroke="#d9d9d9" stroke-width="1.0" stroke-linecap="butt" d="M105.5 131.5L437.5 131.5" fill-rule="nonzero"/><path stroke="#d9d9d9" stroke-width="1.0" stroke-linecap="butt" d="M105.5 41.5L437.5 41.5" fill-rule="nonzero"/><path stroke="#d9d9d9" stroke-width="1.0" stroke-linecap="butt" d="M105.5 56.5L437.5 56.5" fill-rule="nonzero"/><path stroke="#d9d9d9" stroke-width="1.0" stroke-linecap="butt" d="M105.5 71.5L437.5 71.5" fill-rule="nonzero"/><clipPath id="id_0"><path d="M105.95 26.45L437.05 26.45L437.05 205.75L105.95 205.75L105.95 26.45Z" clip-rule="nonzero"/></clipPath><path stroke="#5483ae" stroke-width="1.0" stroke-linecap="butt" clip-path="url(#id_0)" d="M147.3375 71.275L147.3375 53.345" fill-rule="nonzero"/><path stroke="#5483ae" stroke-width="1.0" stroke-linecap="butt" clip-path="url(#id_0)" d="M141.3375 71.275L153.3375 71.275" fill-rule="nonzero"/><path stroke="#5483ae" stroke-width="1.0" stroke-linecap="butt" clip-path="url(#id_0)" d="M141.3375 53.345L153.3375 53.345" fill-rule="nonzero"/><path stroke="#5483ae" stroke-width="1.0" stroke-linecap="butt" clip-path="url(#id_0)" d="M230.1125 65.29833L230.1125 47.368332" fill-rule="nonzero"/><path stroke="#5483ae" stroke-width="1.0" stroke-linecap="butt" clip-path="url(#id_0)" d="M224.1125 65.29833L236.1125 65.29833" fill-rule="nonzero"/><path stroke="#5483ae" stroke-width="1.0" stroke-linecap="butt" clip-path="url(#id_0)" d="M224.1125 47.368332L236.1125 47.368332" fill-rule="nonzero"/><path stroke="#5483ae" stroke-width="1.0" stroke-linecap="butt" clip-path="url(#id_0)" d="M312.8875 57.8275L312.8875 39.8975" fill-rule="nonzero"/><path stroke="#5483ae" stroke-width="1.0" stroke-linecap="butt" clip-path="url(#id_0)" d="M306.8875 57.8275L318.8875 57.8275" fill-rule="nonzero"/><path stroke="#5483ae" stroke-width="1.0" stroke-linecap="butt" clip-path="url(#id_0)" d="M306.8875 39.8975L318.8875 39.8975" fill-rule="nonzero"/><path stroke="#5483ae" stroke-width="1.0" stroke-linecap="butt" clip-path="url(#id_0)" d="M395.6625 50.356667L395.6625 32.426666" fill-rule="nonzero"/><path stroke="#5483ae" stroke-width="1.0" stroke-linecap="butt" clip-path="url(#id_0)" d="M389.6625 50.356667L401.6625 50.356667" fill-rule="nonzero"/><path stroke="#5483ae" stroke-width="1.0" stroke-linecap="butt" clip-path="url(#id_0)" d="M389.6625 32.426666L401.6625 32.426666" fill-rule="nonzero"/><path stroke="#ff9c81" stroke-width="1.0" stroke-linecap="butt" clip-path="url(#id_0)" d="M147.3375 40.196335L147.3375 22.266333" fill-rule="nonzero"/><path stroke="#ff9c81" stroke-width="1.0" stroke-linecap="butt" clip-path="url(#id_0)" d="M141.3375 40.196335L153.3375 40.196335" fill-rule="nonzero"/><path stroke="#ff9c81" stroke-width="1.0" stroke-linecap="butt" clip-path="url(#id_0)" d="M141.3375 22.266333L153.3375 22.266333" fill-rule="nonzero"/><path stroke="#ff9c81" stroke-width="1.0" stroke-linecap="butt" clip-path="url(#id_0)" d="M230.1125 44.977665L230.1125 27.047667" fill-rule="nonzero"/><path stroke="#ff9c81" stroke-width="1.0" stroke-linecap="butt" clip-path="url(#id_0)" d="M224.1125 44.977665L236.1125 44.977665" fill-rule="nonzero"/><path stroke="#ff9c81" stroke-width="1.0" stroke-linecap="butt" clip-path="url(#id_0)" d="M224.1125 27.047667L236.1125 27.047667" fill-rule="nonzero"/><path stroke="#ff9c81" stroke-width="1.0" stroke-linecap="butt" clip-path="url(#id_0)" d="M312.8875 38.40333L312.8875 20.473333" fill-rule="nonzero"/><path stroke="#ff9c81" stroke-width="1.0" stroke-linecap="butt" clip-path="url(#id_0)" d="M306.8875 38.40333L318.8875 38.40333" fill-rule="nonzero"/><path stroke="#ff9c81" stroke-width="1.0" stroke-linecap="butt" clip-path="url(#id_0)" d="M306.8875 20.473333L318.8875 20.473333" fill-rule="nonzero"/><path stroke="#ff9c81" stroke-width="1.0" stroke-linecap="butt" clip-path="url(#id_0)" d="M395.6625 37.506832L395.6625 19.576834" fill-rule="nonzero"/><path stroke="#ff9c81" stroke-width="1.0" stroke-linecap="butt" clip-path="url(#id_0)" d="M389.6625 37.506832L401.6625 37.506832" fill-rule="nonzero"/><path stroke="#ff9c81" stroke-width="1.0" stroke-linecap="butt" clip-path="url(#id_0)" d="M389.6625 19.576834L401.6625 19.576834" fill-rule="nonzero"/><path fill="#004586" clip-path="url(#id_0)" d="M151.8375 62.31C151.8375 64.79528 149.82278 66.81 147.3375 66.81C144.85222 66.81 142.8375 64.79528 142.8375 62.31C142.8375 59.82472 144.85222 57.81 147.3375 57.81C149.82278 57.81 151.8375 59.82472 151.8375 62.31Z" fill-rule="nonzero"/><path fill="#004586" clip-path="url(#id_0)" d="M234.6125 56.333332C234.6125 58.818615 232.59778 60.833332 230.1125 60.833332C227.62721 60.833332 225.6125 58.818615 225.6125 56.333332C225.6125 53.848053 227.62721 51.833332 230.1125 51.833332C232.59778 51.833332 234.6125 53.848053 234.6125 56.333332Z" fill-rule="nonzero"/><path fill="#004586" clip-path="url(#id_0)" d="M317.3875 48.8625C317.3875 51.347782 315.37277 53.3625 312.8875 53.3625C310.40222 53.3625 308.3875 51.347782 308.3875 48.8625C308.3875 46.37722 310.40222 44.3625 312.8875 44.3625C315.37277 44.3625 317.3875 46.37722 317.3875 48.8625Z" fill-rule="nonzero"/><path fill="#004586" clip-path="url(#id_0)" d="M400.1625 41.391666C400.1625 43.87695 398.1478 45.891666 395.6625 45.891666C393.17722 45.891666 391.1625 43.87695 391.1625 41.391666C391.1625 38.906384 393.17722 36.891666 395.6625 36.891666C398.1478 36.891666 400.1625 38.906384 400.1625 41.391666Z" fill-rule="nonzero"/><path fill="#ff420e" clip-path="url(#id_0)" d="M147.3375 27.731333L150.36859 32.981335L144.30641 32.981335Z" fill-rule="nonzero"/><path fill="#ff420e" clip-path="url(#id_0)" d="M230.1125 32.512665L233.14359 37.762665L227.0814 37.762665Z" fill-rule="nonzero"/><path fill="#ff420e" clip-path="url(#id_0)" d="M312.8875 25.938334L315.91858 31.188334L309.8564 31.188334Z" fill-rule="nonzero"/><path fill="#ff420e" clip-path="url(#id_0)" d="M395.6625 25.041834L398.6936 30.291834L392.6314 30.291834Z" fill-rule="nonzero"/><path fill="#424242" d="M222.04688 281.75L222.04688 267.4375L226.96875 267.4375Q228.64062 267.4375 229.53125 267.64062Q230.75 267.92188 231.625 268.65625Q232.75 269.625 233.3125 271.10938Q233.875 272.59375 233.875 274.51562Q233.875 276.14062 233.5 277.40625Q233.125 278.65625 232.51562 279.48438Q231.92188 280.3125 231.21875 280.79688Q230.51562 281.26562 229.51562 281.51562Q228.51562 281.75 227.20312 281.75L222.04688 281.75ZM223.9375 280.0625L227.0 280.0625Q228.40625 280.0625 229.20312 279.79688Q230.01562 279.53125 230.5 279.04688Q231.17188 278.375 231.54688 277.25Q231.92188 276.10938 231.92188 274.48438Q231.92188 272.23438 231.1875 271.03125Q230.45312 269.82812 229.39062 269.42188Q228.64062 269.125 226.95312 269.125L223.9375 269.125L223.9375 280.0625ZM242.59375 280.46875Q241.60938 281.29688 240.70312 281.64062Q239.79688 281.98438 238.76562 281.98438Q237.0625 281.98438 236.14062 281.15625Q235.21875 280.3125 235.21875 279.01562Q235.21875 278.25 235.5625 277.625Q235.92188 277.0 236.48438 276.625Q237.04688 276.23438 237.75 276.03125Q238.26562 275.90625 239.3125 275.76562Q241.4375 275.51562 242.4375 275.17188Q242.45312 274.8125 242.45312 274.70312Q242.45312 273.64062 241.95312 273.1875Q241.28125 272.59375 239.95312 272.59375Q238.70312 272.59375 238.10938 273.03125Q237.53125 273.46875 237.25 274.57812L235.53125 274.34375Q235.76562 273.23438 236.29688 272.5625Q236.82812 271.875 237.84375 271.51562Q238.85938 271.14062 240.20312 271.14062Q241.53125 271.14062 242.35938 271.45312Q243.1875 271.76562 243.57812 272.25Q243.96875 272.71875 244.125 273.4375Q244.21875 273.89062 244.21875 275.0625L244.21875 277.40625Q244.21875 279.85938 244.32812 280.51562Q244.4375 281.15625 244.78125 281.75L242.9375 281.75Q242.67188 281.20312 242.59375 280.46875ZM242.4375 276.54688Q241.48438 276.9375 239.5625 277.20312Q238.48438 277.35938 238.03125 277.5625Q237.59375 277.75 237.34375 278.125Q237.09375 278.5 237.09375 278.96875Q237.09375 279.67188 237.625 280.14062Q238.15625 280.60938 239.1875 280.60938Q240.20312 280.60938 240.98438 280.17188Q241.78125 279.71875 242.15625 278.95312Q242.4375 278.34375 242.4375 277.1875L242.4375 276.54688ZM250.65625 280.17188L250.90625 281.73438Q250.17188 281.89062 249.57812 281.89062Q248.625 281.89062 248.09375 281.59375Q247.57812 281.28125 247.35938 280.79688Q247.14062 280.29688 247.14062 278.71875L247.14062 272.75L245.85938 272.75L245.85938 271.375L247.14062 271.375L247.14062 268.8125L248.89062 267.75L248.89062 271.375L250.65625 271.375L250.65625 272.75L248.89062 272.75L248.89062 278.8125Q248.89062 279.5625 248.98438 279.78125Q249.07812 279.98438 249.28125 280.125Q249.5 280.25 249.89062 280.25Q250.17188 280.25 250.65625 280.17188ZM259.59375 280.46875Q258.60938 281.29688 257.70312 281.64062Q256.79688 281.98438 255.76562 281.98438Q254.0625 281.98438 253.14062 281.15625Q252.21875 280.3125 252.21875 279.01562Q252.21875 278.25 252.5625 277.625Q252.92188 277.0 253.48438 276.625Q254.04688 276.23438 254.75 276.03125Q255.26562 275.90625 256.3125 275.76562Q258.4375 275.51562 259.4375 275.17188Q259.45312 274.8125 259.45312 274.70312Q259.45312 273.64062 258.95312 273.1875Q258.28125 272.59375 256.95312 272.59375Q255.70312 272.59375 255.10938 273.03125Q254.53125 273.46875 254.25 274.57812L252.53125 274.34375Q252.76562 273.23438 253.29688 272.5625Q253.82812 271.875 254.84375 271.51562Q255.85938 271.14062 257.20312 271.14062Q258.53125 271.14062 259.35938 271.45312Q260.1875 271.76562 260.57812 272.25Q260.96875 272.71875 261.125 273.4375Q261.21875 273.89062 261.21875 275.0625L261.21875 277.40625Q261.21875 279.85938 261.32812 280.51562Q261.4375 281.15625 261.78125 281.75L259.9375 281.75Q259.67188 281.20312 259.59375 280.46875ZM259.4375 276.54688Q258.48438 276.9375 256.5625 277.20312Q255.48438 277.35938 255.03125 277.5625Q254.59375 277.75 254.34375 278.125Q254.09375 278.5 254.09375 278.96875Q254.09375 279.67188 254.625 280.14062Q255.15625 280.60938 256.1875 280.60938Q257.20312 280.60938 257.98438 280.17188Q258.78125 279.71875 259.15625 278.95312Q259.4375 278.34375 259.4375 277.1875L259.4375 276.54688ZM269.78125 281.75L269.78125 267.4375L271.53125 267.4375L271.53125 281.75L269.78125 281.75ZM280.92188 278.40625L282.73438 278.64062Q282.3125 280.21875 281.14062 281.10938Q279.98438 281.98438 278.17188 281.98438Q275.90625 281.98438 274.5625 280.59375Q273.23438 279.1875 273.23438 276.65625Q273.23438 274.03125 274.57812 272.59375Q275.92188 271.14062 278.07812 271.14062Q280.15625 271.14062 281.46875 272.5625Q282.79688 273.96875 282.79688 276.54688Q282.79688 276.70312 282.78125 277.01562L275.04688 277.01562Q275.14062 278.71875 276.01562 279.625Q276.89062 280.53125 278.1875 280.53125Q279.15625 280.53125 279.82812 280.03125Q280.51562 279.51562 280.92188 278.40625ZM275.14062 275.5625L280.9375 275.5625Q280.82812 274.26562 280.28125 273.60938Q279.4375 272.59375 278.09375 272.59375Q276.89062 272.59375 276.0625 273.40625Q275.23438 274.20312 275.14062 275.5625ZM284.8125 281.75L284.8125 271.375L286.40625 271.375L286.40625 272.85938Q287.54688 271.14062 289.70312 271.14062Q290.64062 271.14062 291.42188 271.48438Q292.21875 271.8125 292.60938 272.35938Q293.0 272.90625 293.15625 273.65625Q293.25 274.15625 293.25 275.375L293.25 281.75L291.48438 281.75L291.48438 275.4375Q291.48438 274.35938 291.28125 273.82812Q291.07812 273.29688 290.54688 272.98438Q290.03125 272.67188 289.32812 272.67188Q288.20312 272.67188 287.39062 273.39062Q286.57812 274.09375 286.57812 276.07812L286.57812 281.75L284.8125 281.75ZM295.5 282.60938L297.20312 282.85938Q297.3125 283.65625 297.79688 284.01562Q298.45312 284.5 299.59375 284.5Q300.8125 284.5 301.46875 284.01562Q302.14062 283.53125 302.375 282.65625Q302.51562 282.10938 302.5 280.39062Q301.34375 281.75 299.625 281.75Q297.48438 281.75 296.3125 280.20312Q295.14062 278.65625 295.14062 276.5Q295.14062 275.01562 295.67188 273.76562Q296.21875 272.51562 297.23438 271.82812Q298.26562 271.14062 299.64062 271.14062Q301.46875 271.14062 302.67188 272.625L302.67188 271.375L304.28125 271.375L304.28125 280.34375Q304.28125 282.76562 303.78125 283.76562Q303.29688 284.78125 302.21875 285.35938Q301.15625 285.95312 299.59375 285.95312Q297.75 285.95312 296.59375 285.125Q295.45312 284.29688 295.5 282.60938ZM296.95312 276.375Q296.95312 278.42188 297.76562 279.35938Q298.57812 280.29688 299.79688 280.29688Q301.0 280.29688 301.8125 279.35938Q302.64062 278.42188 302.64062 276.4375Q302.64062 274.53125 301.79688 273.5625Q300.95312 272.59375 299.76562 272.59375Q298.59375 272.59375 297.76562 273.54688Q296.95312 274.5 296.95312 276.375ZM310.65625 280.17188L310.90625 281.73438Q310.17188 281.89062 309.57812 281.89062Q308.625 281.89062 308.09375 281.59375Q307.57812 281.28125 307.35938 280.79688Q307.14062 280.29688 307.14062 278.71875L307.14062 272.75L305.85938 272.75L305.85938 271.375L307.14062 271.375L307.14062 268.8125L308.89062 267.75L308.89062 271.375L310.65625 271.375L310.65625 272.75L308.89062 272.75L308.89062 278.8125Q308.89062 279.5625 308.98438 279.78125Q309.07812 279.98438 309.28125 280.125Q309.5 280.25 309.89062 280.25Q310.17188 280.25 310.65625 280.17188ZM312.8125 281.75L312.8125 267.4375L314.57812 267.4375L314.57812 272.5625Q315.8125 271.14062 317.6875 271.14062Q318.82812 271.14062 319.67188 271.59375Q320.53125 272.04688 320.89062 272.85938Q321.26562 273.65625 321.26562 275.17188L321.26562 281.75L319.51562 281.75L319.51562 275.17188Q319.51562 273.85938 318.9375 273.26562Q318.35938 272.65625 317.32812 272.65625Q316.54688 272.65625 315.84375 273.0625Q315.15625 273.46875 314.85938 274.17188Q314.57812 274.85938 314.57812 276.07812L314.57812 281.75L312.8125 281.75Z" fill-rule="nonzero"/><path fill="#424242" d="M35.95 183.88126L21.6375 178.38126L21.6375 176.33438L35.95 170.475L35.95 172.63126L31.60625 174.30313L31.60625 180.2875L35.95 181.86563L35.95 183.88126ZM30.075 179.74063L30.075 174.89688L26.10625 176.38126Q24.29375 177.06876 23.1375 177.39688Q24.5125 177.67813 25.871876 178.17813L30.075 179.74063ZM32.153126 162.75626L32.371876 161.0375Q34.16875 161.31876 35.184376 162.49063Q36.184376 163.64688 36.184376 165.35Q36.184376 167.475 34.79375 168.77188Q33.403126 170.06876 30.809376 170.06876Q29.121876 170.06876 27.871876 169.52188Q26.60625 168.95938 25.98125 167.81876Q25.340626 166.67813 25.340626 165.33438Q25.340626 163.64688 26.2 162.58438Q27.059376 161.50626 28.621876 161.19376L28.8875 162.9125Q27.840626 163.14688 27.325 163.77188Q26.79375 164.39688 26.79375 165.27188Q26.79375 166.6 27.746876 167.42813Q28.7 168.25626 30.746876 168.25626Q32.840626 168.25626 33.79375 167.45938Q34.73125 166.6625 34.73125 165.36563Q34.73125 164.33438 34.10625 163.64688Q33.465626 162.94376 32.153126 162.75626ZM32.153126 152.75626L32.371876 151.0375Q34.16875 151.31876 35.184376 152.49063Q36.184376 153.64688 36.184376 155.35Q36.184376 157.475 34.79375 158.77188Q33.403126 160.06876 30.809376 160.06876Q29.121876 160.06876 27.871876 159.52188Q26.60625 158.95938 25.98125 157.81876Q25.340626 156.67813 25.340626 155.33438Q25.340626 153.64688 26.2 152.58438Q27.059376 151.50626 28.621876 151.19376L28.8875 152.9125Q27.840626 153.14688 27.325 153.77188Q26.79375 154.39688 26.79375 155.27188Q26.79375 156.6 27.746876 157.42813Q28.7 158.25626 30.746876 158.25626Q32.840626 158.25626 33.79375 157.45938Q34.73125 156.6625 34.73125 155.36563Q34.73125 154.33438 34.10625 153.64688Q33.465626 152.94376 32.153126 152.75626ZM35.95 142.74063L34.41875 142.74063Q36.184376 143.94376 36.184376 146.02188Q36.184376 146.94376 35.840626 147.74063Q35.48125 148.5375 34.95 148.92813Q34.41875 149.30313 33.6375 149.45938Q33.121876 149.56876 31.996876 149.56876L25.575 149.56876L25.575 147.81876L31.325 147.81876Q32.7 147.81876 33.184376 147.70938Q33.871876 147.5375 34.278126 147.00626Q34.66875 146.45938 34.66875 145.67813Q34.66875 144.88126 34.2625 144.19376Q33.85625 143.49063 33.16875 143.20938Q32.465626 142.9125 31.1375 142.9125L25.575 142.9125L25.575 141.1625L35.95 141.1625L35.95 142.74063ZM35.95 138.55313L25.575 138.55313L25.575 136.975L27.153126 136.975Q26.04375 136.36563 25.7 135.85Q25.340626 135.33438 25.340626 134.725Q25.340626 133.83438 25.903126 132.9125L27.54375 133.52188Q27.153126 134.1625 27.153126 134.80313Q27.153126 135.38126 27.5125 135.85Q27.85625 136.30313 28.465626 136.50626Q29.403126 136.7875 30.5125 136.7875L35.95 136.7875L35.95 138.55313ZM34.66875 124.75625Q35.496876 125.74062 35.840626 126.64687Q36.184376 127.55312 36.184376 128.58438Q36.184376 130.2875 35.35625 131.20938Q34.5125 132.13126 33.215626 132.13126Q32.45 132.13126 31.825 131.7875Q31.2 131.42813 30.825 130.86563Q30.434376 130.30313 30.23125 129.6Q30.10625 129.08438 29.965626 128.0375Q29.715626 125.9125 29.371876 124.9125Q29.0125 124.89687 28.903126 124.89687Q27.840626 124.89687 27.3875 125.39687Q26.79375 126.06875 26.79375 127.39687Q26.79375 128.64688 27.23125 129.24063Q27.66875 129.81876 28.778126 130.1L28.54375 131.81876Q27.434376 131.58438 26.7625 131.05313Q26.075 130.52188 25.715626 129.50626Q25.340626 128.49063 25.340626 127.14687Q25.340626 125.81875 25.653126 124.99062Q25.965626 124.1625 26.45 123.77187Q26.91875 123.38125 27.6375 123.225Q28.090626 123.13125 29.2625 123.13125L31.60625 123.13125Q34.059376 123.13125 34.715626 123.02187Q35.35625 122.9125 35.95 122.56875L35.95 124.4125Q35.403126 124.67812 34.66875 124.75625ZM30.746876 124.9125Q31.1375 125.86562 31.403126 127.7875Q31.559376 128.86563 31.7625 129.31876Q31.95 129.75626 32.325 130.00626Q32.7 130.25626 33.16875 130.25626Q33.871876 130.25626 34.340626 129.725Q34.809376 129.19376 34.809376 128.1625Q34.809376 127.14687 34.371876 126.36562Q33.91875 125.56875 33.153126 125.19375Q32.54375 124.9125 31.3875 124.9125L30.746876 124.9125ZM32.153126 113.75624L32.371876 112.03749Q34.16875 112.31874 35.184376 113.490616Q36.184376 114.646866 36.184376 116.34999Q36.184376 118.47499 34.79375 119.771866Q33.403126 121.06874 30.809376 121.06874Q29.121876 121.06874 27.871876 120.521866Q26.60625 119.959366 25.98125 118.81874Q25.340626 117.678116 25.340626 116.334366Q25.340626 114.646866 26.2 113.584366Q27.059376 112.50624 28.621876 112.19374L28.8875 113.91249Q27.840626 114.146866 27.325 114.771866Q26.79375 115.396866 26.79375 116.271866Q26.79375 117.59999 27.746876 118.428116Q28.7 119.25624 30.746876 119.25624Q32.840626 119.25624 33.79375 118.459366Q34.73125 117.66249 34.73125 116.365616Q34.73125 115.334366 34.10625 114.646866Q33.465626 113.94374 32.153126 113.75624ZM39.95 110.615616L38.29375 110.803116Q38.45 110.22499 38.45 109.803116Q38.45 109.209366 38.246876 108.865616Q38.059376 108.50624 37.715626 108.28749Q37.45 108.115616 36.403126 107.740616Q36.246876 107.69374 35.965626 107.584366L25.575 111.521866L25.575 109.63124L31.590626 107.47499Q32.73125 107.053116 33.98125 106.72499Q32.778126 106.41249 31.621876 106.00624L25.575 103.78749L25.575 102.021866L36.121876 105.97499Q37.840626 106.59999 38.48125 106.959366Q39.35625 107.428116 39.746876 108.03749Q40.153126 108.63124 40.153126 109.47499Q40.153126 109.990616 39.95 110.615616ZM39.91875 94.490616L21.6375 94.490616L21.6375 90.615616L23.090626 90.615616L23.090626 92.740616L38.465626 92.740616L38.465626 90.615616L39.91875 90.615616L39.91875 94.490616ZM25.075 88.69374Q23.54375 88.69374 22.465626 87.928116Q21.3875 87.146866 21.3875 85.678116Q21.3875 84.334366 22.35625 83.459366Q23.309376 82.56874 25.184376 82.56874Q26.996876 82.56874 27.98125 83.459366Q28.95 84.34999 28.95 85.66249Q28.95 86.959366 27.996876 87.834366Q27.028126 88.69374 25.075 88.69374ZM22.60625 85.63124Q22.60625 86.28749 23.16875 86.72499Q23.73125 87.146866 25.246876 87.146866Q26.621876 87.146866 27.184376 86.709366Q27.746876 86.271866 27.746876 85.63124Q27.746876 84.959366 27.184376 84.53749Q26.60625 84.09999 25.10625 84.09999Q23.715626 84.09999 23.16875 84.53749Q22.60625 84.97499 22.60625 85.63124ZM36.48125 85.615616L21.3875 77.78749L21.3875 76.365616L36.48125 84.16249L36.48125 85.615616ZM32.590626 79.428116Q31.04375 79.428116 29.98125 78.66249Q28.903126 77.88124 28.903126 76.41249Q28.903126 75.06874 29.871876 74.19374Q30.825 73.303116 32.7 73.303116Q34.5125 73.303116 35.496876 74.19374Q36.48125 75.084366 36.48125 76.396866Q36.48125 77.69374 35.5125 78.56874Q34.528126 79.428116 32.590626 79.428116ZM30.121876 76.365616Q30.121876 77.021866 30.684376 77.459366Q31.246876 77.896866 32.7625 77.896866Q34.1375 77.896866 34.7 77.459366Q35.2625 77.021866 35.2625 76.365616Q35.2625 75.69374 34.7 75.271866Q34.1375 74.834366 32.621876 74.834366Q31.246876 74.834366 30.684376 75.271866Q30.121876 75.709366 30.121876 76.365616ZM39.91875 67.584366L39.91875 71.47499L38.465626 71.47499L38.465626 69.34999L23.090626 69.34999L23.090626 71.47499L21.6375 71.47499L21.6375 67.584366L39.91875 67.584366Z" fill-rule="nonzero"/><path fill="#757575" d="M85.12187 211.25L85.12187 208.5L80.15312 208.5L80.15312 207.21875L85.3875 199.79688L86.52812 199.79688L86.52812 207.21875L88.075 207.21875L88.075 208.5L86.52812 208.5L86.52812 211.25L85.12187 211.25ZM85.12187 207.21875L85.12187 202.04688L81.54375 207.21875L85.12187 207.21875ZM89.62187 205.59375Q89.62187 203.5625 90.02812 202.32812Q90.45 201.09375 91.27812 200.42188Q92.10625 199.75 93.35625 199.75Q94.27812 199.75 94.96562 200.125Q95.66875 200.48438 96.12187 201.1875Q96.575 201.89062 96.825 202.89062Q97.09062 203.89062 97.09062 205.59375Q97.09062 207.60938 96.66875 208.85938Q96.2625 210.09375 95.43437 210.78125Q94.60625 211.45312 93.35625 211.45312Q91.7 211.45312 90.74687 210.25Q89.62187 208.82812 89.62187 205.59375ZM91.05937 205.59375Q91.05937 208.42188 91.71562 209.35938Q92.3875 210.28125 93.35625 210.28125Q94.325 210.28125 94.98125 209.34375Q95.6375 208.40625 95.6375 205.59375Q95.6375 202.76562 94.98125 201.84375Q94.325 200.90625 93.34062 200.90625Q92.37187 200.90625 91.79375 201.73438Q91.05937 202.78125 91.05937 205.59375Z" fill-rule="nonzero"/><path fill="#757575" d="M87.91875 142.82709L86.5125 142.93646Q86.325 142.10834 85.98125 141.73334Q85.41875 141.13959 84.575 141.13959Q83.90312 141.13959 83.40312 141.51459Q82.73125 141.99896 82.34062 142.93646Q81.96562 143.85834 81.95 145.57709Q82.46562 144.79584 83.2 144.42084Q83.93437 144.04584 84.73125 144.04584Q86.1375 144.04584 87.12187 145.09271Q88.12187 146.12396 88.12187 147.76459Q88.12187 148.84271 87.65312 149.76459Q87.18437 150.68646 86.37187 151.18646Q85.55937 151.68646 84.52812 151.68646Q82.77812 151.68646 81.66875 150.38959Q80.55937 149.09271 80.55937 146.12396Q80.55937 142.79584 81.77812 141.29584Q82.85625 139.98334 84.66875 139.98334Q86.0125 139.98334 86.87187 140.74896Q87.74687 141.49896 87.91875 142.82709ZM82.16875 147.76459Q82.16875 148.49896 82.48125 149.17084Q82.79375 149.82709 83.34062 150.17084Q83.90312 150.51459 84.5125 150.51459Q85.40312 150.51459 86.04375 149.79584Q86.68437 149.07709 86.68437 147.84271Q86.68437 146.65521 86.04375 145.98334Q85.41875 145.29584 84.45 145.29584Q83.49687 145.29584 82.825 145.98334Q82.16875 146.65521 82.16875 147.76459ZM89.62187 145.82709Q89.62187 143.79584 90.02812 142.56146Q90.45 141.32709 91.27812 140.65521Q92.10625 139.98334 93.35625 139.98334Q94.27812 139.98334 94.96562 140.35834Q95.66875 140.71771 96.12187 141.42084Q96.575 142.12396 96.825 143.12396Q97.09062 144.12396 97.09062 145.82709Q97.09062 147.84271 96.66875 149.09271Q96.2625 150.32709 95.43437 151.01459Q94.60625 151.68646 93.35625 151.68646Q91.7 151.68646 90.74687 150.48334Q89.62187 149.06146 89.62187 145.82709ZM91.05937 145.82709Q91.05937 148.65521 91.71562 149.59271Q92.3875 150.51459 93.35625 150.51459Q94.325 150.51459 94.98125 149.57709Q95.6375 148.63959 95.6375 145.82709Q95.6375 142.99896 94.98125 142.07709Q94.325 141.13959 93.34062 141.13959Q92.37187 141.13959 91.79375 141.96771Q91.05937 143.01459 91.05937 145.82709Z" fill-rule="nonzero"/><path fill="#757575" d="M82.77812 85.49792Q81.90312 85.18542 81.48125 84.59167Q81.05937 83.99792 81.05937 83.16979Q81.05937 81.91979 81.95 81.07604Q82.85625 80.21667 84.35625 80.21667Q85.85625 80.21667 86.7625 81.09167Q87.68437 81.95104 87.68437 83.20104Q87.68437 83.99792 87.2625 84.59167Q86.84062 85.18542 85.99687 85.49792Q87.04375 85.84167 87.59062 86.60729Q88.15312 87.37292 88.15312 88.43542Q88.15312 89.90417 87.10625 90.91979Q86.075 91.91979 84.37187 91.91979Q82.68437 91.91979 81.6375 90.91979Q80.60625 89.90417 80.60625 88.40417Q80.60625 87.27917 81.16875 86.52917Q81.73125 85.77917 82.77812 85.49792ZM82.49687 83.12292Q82.49687 83.93542 83.0125 84.45104Q83.54375 84.96667 84.3875 84.96667Q85.2 84.96667 85.71562 84.45104Q86.23125 83.93542 86.23125 83.20104Q86.23125 82.41979 85.7 81.90417Q85.16875 81.37292 84.37187 81.37292Q83.55937 81.37292 83.02812 81.88854Q82.49687 82.40417 82.49687 83.12292ZM82.04375 88.40417Q82.04375 89.01354 82.325 89.57604Q82.62187 90.13854 83.18437 90.45104Q83.74687 90.74792 84.3875 90.74792Q85.40312 90.74792 86.05937 90.10729Q86.71562 89.45104 86.71562 88.45104Q86.71562 87.43542 86.02812 86.77917Q85.35625 86.10729 84.34062 86.10729Q83.35625 86.10729 82.7 86.76354Q82.04375 87.41979 82.04375 88.40417ZM89.62187 86.06042Q89.62187 84.02917 90.02812 82.79479Q90.45 81.56042 91.27812 80.88854Q92.10625 80.21667 93.35625 80.21667Q94.27812 80.21667 94.96562 80.59167Q95.66875 80.95104 96.12187 81.65417Q96.575 82.35729 96.825 83.35729Q97.09062 84.35729 97.09062 86.06042Q97.09062 88.07604 96.66875 89.32604Q96.2625 90.56042 95.43437 91.24792Q94.60625 91.91979 93.35625 91.91979Q91.7 91.91979 90.74687 90.71667Q89.62187 89.29479 89.62187 86.06042ZM91.05937 86.06042Q91.05937 88.88854 91.71562 89.82604Q92.3875 90.74792 93.35625 90.74792Q94.325 90.74792 94.98125 89.81042Q95.6375 88.87292 95.6375 86.06042Q95.6375 83.23229 94.98125 82.31042Q94.325 81.37292 93.34062 81.37292Q92.37187 81.37292 91.79375 82.20104Q91.05937 83.24792 91.05937 86.06042Z" fill-rule="nonzero"/><path fill="#757575" d="M76.91875 31.95L75.5125 31.95L75.5125 22.98125Q74.99687 23.465626 74.16875 23.95Q73.35625 24.434376 72.7 24.684376L72.7 23.325Q73.87187 22.7625 74.74687 21.98125Q75.6375 21.184376 76.0125 20.45L76.91875 20.45L76.91875 31.95ZM80.62187 26.29375Q80.62187 24.2625 81.02812 23.028126Q81.45 21.79375 82.27812 21.121876Q83.10625 20.45 84.35625 20.45Q85.27812 20.45 85.96562 20.825Q86.66875 21.184376 87.12187 21.8875Q87.575 22.590626 87.825 23.590626Q88.09062 24.590626 88.09062 26.29375Q88.09062 28.309376 87.66875 29.559376Q87.2625 30.79375 86.43437 31.48125Q85.60625 32.153126 84.35625 32.153126Q82.7 32.153126 81.74687 30.95Q80.62187 29.528126 80.62187 26.29375ZM82.05937 26.29375Q82.05937 29.121876 82.71562 30.059376Q83.3875 30.98125 84.35625 30.98125Q85.325 30.98125 85.98125 30.04375Q86.6375 29.10625 86.6375 26.29375Q86.6375 23.465626 85.98125 22.54375Q85.325 21.60625 84.34062 21.60625Q83.37187 21.60625 82.79375 22.434376Q82.05937 23.48125 82.05937 26.29375ZM89.62187 26.29375Q89.62187 24.2625 90.02812 23.028126Q90.45 21.79375 91.27812 21.121876Q92.10625 20.45 93.35625 20.45Q94.27812 20.45 94.96562 20.825Q95.66875 21.184376 96.12187 21.8875Q96.575 22.590626 96.825 23.590626Q97.09062 24.590626 97.09062 26.29375Q97.09062 28.309376 96.66875 29.559376Q96.2625 30.79375 95.43437 31.48125Q94.60625 32.153126 93.35625 32.153126Q91.7 32.153126 90.74687 30.95Q89.62187 29.528126 89.62187 26.29375ZM91.05937 26.29375Q91.05937 29.121876 91.71562 30.059376Q92.3875 30.98125 93.35625 30.98125Q94.325 30.98125 94.98125 30.04375Q95.6375 29.10625 95.6375 26.29375Q95.6375 23.465626 94.98125 22.54375Q94.325 21.60625 93.34062 21.60625Q92.37187 21.60625 91.79375 22.434376Q91.05937 23.48125 91.05937 26.29375Z" fill-rule="nonzero"/><path fill="#757575" d="M139.80624 228.75L138.4 228.75L138.4 219.78125Q137.88437 220.26562 137.05624 220.75Q136.24374 221.23438 135.5875 221.48438L135.5875 220.125Q136.75937 219.5625 137.63437 218.78125Q138.525 217.98438 138.9 217.25L139.80624 217.25L139.80624 228.75ZM150.9 227.39062L150.9 228.75L143.32187 228.75Q143.30624 228.23438 143.49374 227.76562Q143.775 227.0 144.41562 226.25Q145.05624 225.5 146.25937 224.51562Q148.11874 222.98438 148.775 222.09375Q149.43124 221.1875 149.43124 220.39062Q149.43124 219.5625 148.8375 218.98438Q148.24374 218.40625 147.275 218.40625Q146.25937 218.40625 145.65 219.01562Q145.04062 219.625 145.04062 220.70312L143.5875 220.5625Q143.74374 218.9375 144.7125 218.09375Q145.68124 217.25 147.30624 217.25Q148.9625 217.25 149.91562 218.17188Q150.88437 219.07812 150.88437 220.42188Q150.88437 221.10938 150.60312 221.78125Q150.32187 222.4375 149.66562 223.17188Q149.00937 223.90625 147.49374 225.1875Q146.22812 226.25 145.86874 226.64062Q145.50937 227.01562 145.275 227.39062L150.9 227.39062ZM154.66562 222.53125Q153.79062 222.21875 153.36874 221.625Q152.94687 221.03125 152.94687 220.20312Q152.94687 218.95312 153.8375 218.10938Q154.74374 217.25 156.24374 217.25Q157.74374 217.25 158.65 218.125Q159.57187 218.98438 159.57187 220.23438Q159.57187 221.03125 159.15 221.625Q158.72812 222.21875 157.88437 222.53125Q158.93124 222.875 159.47812 223.64062Q160.04062 224.40625 160.04062 225.46875Q160.04062 226.9375 158.99374 227.95312Q157.9625 228.95312 156.25937 228.95312Q154.57187 228.95312 153.525 227.95312Q152.49374 226.9375 152.49374 225.4375Q152.49374 224.3125 153.05624 223.5625Q153.61874 222.8125 154.66562 222.53125ZM154.38437 220.15625Q154.38437 220.96875 154.9 221.48438Q155.43124 222.0 156.275 222.0Q157.0875 222.0 157.60312 221.48438Q158.11874 220.96875 158.11874 220.23438Q158.11874 219.45312 157.5875 218.9375Q157.05624 218.40625 156.25937 218.40625Q155.44687 218.40625 154.91562 218.92188Q154.38437 219.4375 154.38437 220.15625ZM153.93124 225.4375Q153.93124 226.04688 154.2125 226.60938Q154.50937 227.17188 155.07187 227.48438Q155.63437 227.78125 156.275 227.78125Q157.29062 227.78125 157.94687 227.14062Q158.60312 226.48438 158.60312 225.48438Q158.60312 224.46875 157.91562 223.8125Q157.24374 223.14062 156.22812 223.14062Q155.24374 223.14062 154.5875 223.79688Q153.93124 224.45312 153.93124 225.4375Z" fill-rule="nonzero"/><path fill="#757575" d="M224.675 227.39062L224.675 228.75L217.09688 228.75Q217.08125 228.23438 217.26875 227.76562Q217.55 227.0 218.19063 226.25Q218.83125 225.5 220.03438 224.51562Q221.89375 222.98438 222.55 222.09375Q223.20625 221.1875 223.20625 220.39062Q223.20625 219.5625 222.6125 218.98438Q222.01875 218.40625 221.05 218.40625Q220.03438 218.40625 219.425 219.01562Q218.81563 219.625 218.81563 220.70312L217.3625 220.5625Q217.51875 218.9375 218.4875 218.09375Q219.45625 217.25 221.08125 217.25Q222.7375 217.25 223.69063 218.17188Q224.65938 219.07812 224.65938 220.42188Q224.65938 221.10938 224.37813 221.78125Q224.09688 222.4375 223.44063 223.17188Q222.78438 223.90625 221.26875 225.1875Q220.00313 226.25 219.64375 226.64062Q219.28438 227.01562 219.05 227.39062L224.675 227.39062ZM226.28438 225.75L227.75313 225.625Q227.925 226.70312 228.51875 227.25Q229.1125 227.78125 229.95625 227.78125Q230.97188 227.78125 231.675 227.01562Q232.37813 226.25 232.37813 224.98438Q232.37813 223.78125 231.70625 223.09375Q231.03438 222.39062 229.94063 222.39062Q229.25313 222.39062 228.70625 222.70312Q228.15938 223.01562 227.84688 223.5L226.53438 223.32812L227.64375 217.45312L233.33125 217.45312L233.33125 218.79688L228.76875 218.79688L228.14375 221.875Q229.175 221.15625 230.31563 221.15625Q231.81563 221.15625 232.84688 222.20312Q233.87813 223.23438 233.87813 224.85938Q233.87813 226.42188 232.97188 227.54688Q231.8625 228.95312 229.95625 228.95312Q228.39375 228.95312 227.40938 228.07812Q226.425 227.1875 226.28438 225.75ZM242.58125 220.09375L241.175 220.20312Q240.9875 219.375 240.64375 219.0Q240.08125 218.40625 239.2375 218.40625Q238.56563 218.40625 238.06563 218.78125Q237.39375 219.26562 237.00313 220.20312Q236.62813 221.125 236.6125 222.84375Q237.12813 222.0625 237.8625 221.6875Q238.59688 221.3125 239.39375 221.3125Q240.8 221.3125 241.78438 222.35938Q242.78438 223.39062 242.78438 225.03125Q242.78438 226.10938 242.31563 227.03125Q241.84688 227.95312 241.03438 228.45312Q240.22188 228.95312 239.19063 228.95312Q237.44063 228.95312 236.33125 227.65625Q235.22188 226.35938 235.22188 223.39062Q235.22188 220.0625 236.44063 218.5625Q237.51875 217.25 239.33125 217.25Q240.675 217.25 241.53438 218.01562Q242.40938 218.76562 242.58125 220.09375ZM236.83125 225.03125Q236.83125 225.76562 237.14375 226.4375Q237.45625 227.09375 238.00313 227.4375Q238.56563 227.78125 239.175 227.78125Q240.06563 227.78125 240.70625 227.0625Q241.34688 226.34375 241.34688 225.10938Q241.34688 223.92188 240.70625 223.25Q240.08125 222.5625 239.1125 222.5625Q238.15938 222.5625 237.4875 223.25Q236.83125 223.92188 236.83125 225.03125Z" fill-rule="nonzero"/><path fill="#757575" d="M300.0594 225.75L301.52814 225.625Q301.7 226.70312 302.29376 227.25Q302.8875 227.78125 303.73126 227.78125Q304.7469 227.78125 305.45 227.01562Q306.15314 226.25 306.15314 224.98438Q306.15314 223.78125 305.48126 223.09375Q304.8094 222.39062 303.71564 222.39062Q303.02814 222.39062 302.48126 222.70312Q301.9344 223.01562 301.6219 223.5L300.3094 223.32812L301.41876 217.45312L307.10626 217.45312L307.10626 218.79688L302.54376 218.79688L301.91876 221.875Q302.95 221.15625 304.09064 221.15625Q305.59064 221.15625 306.6219 222.20312Q307.65314 223.23438 307.65314 224.85938Q307.65314 226.42188 306.7469 227.54688Q305.6375 228.95312 303.73126 228.95312Q302.16876 228.95312 301.1844 228.07812Q300.2 227.1875 300.0594 225.75ZM314.35626 228.75L312.95 228.75L312.95 219.78125Q312.4344 220.26562 311.60626 220.75Q310.79376 221.23438 310.1375 221.48438L310.1375 220.125Q311.3094 219.5625 312.1844 218.78125Q313.075 217.98438 313.45 217.25L314.35626 217.25L314.35626 228.75ZM325.45 227.39062L325.45 228.75L317.8719 228.75Q317.85626 228.23438 318.04376 227.76562Q318.325 227.0 318.96564 226.25Q319.60626 225.5 320.8094 224.51562Q322.66876 222.98438 323.325 222.09375Q323.98126 221.1875 323.98126 220.39062Q323.98126 219.5625 323.3875 218.98438Q322.79376 218.40625 321.825 218.40625Q320.8094 218.40625 320.2 219.01562Q319.59064 219.625 319.59064 220.70312L318.1375 220.5625Q318.29376 218.9375 319.2625 218.09375Q320.23126 217.25 321.85626 217.25Q323.5125 217.25 324.46564 218.17188Q325.4344 219.07812 325.4344 220.42188Q325.4344 221.10938 325.15314 221.78125Q324.8719 222.4375 324.21564 223.17188Q323.5594 223.90625 322.04376 225.1875Q320.77814 226.25 320.41876 226.64062Q320.0594 227.01562 319.825 227.39062L325.45 227.39062Z" fill-rule="nonzero"/><path fill="#757575" d="M383.63126 228.75L382.225 228.75L382.225 219.78125Q381.70938 220.26562 380.88126 220.75Q380.06876 221.23438 379.4125 221.48438L379.4125 220.125Q380.58438 219.5625 381.45938 218.78125Q382.35 217.98438 382.725 217.25L383.63126 217.25L383.63126 228.75ZM387.33438 223.09375Q387.33438 221.0625 387.74063 219.82812Q388.1625 218.59375 388.99063 217.92188Q389.81876 217.25 391.06876 217.25Q391.99063 217.25 392.67813 217.625Q393.38126 217.98438 393.83438 218.6875Q394.2875 219.39062 394.5375 220.39062Q394.80313 221.39062 394.80313 223.09375Q394.80313 225.10938 394.38126 226.35938Q393.975 227.59375 393.14688 228.28125Q392.31876 228.95312 391.06876 228.95312Q389.4125 228.95312 388.45938 227.75Q387.33438 226.32812 387.33438 223.09375ZM388.77188 223.09375Q388.77188 225.92188 389.42813 226.85938Q390.1 227.78125 391.06876 227.78125Q392.0375 227.78125 392.69376 226.84375Q393.35 225.90625 393.35 223.09375Q393.35 220.26562 392.69376 219.34375Q392.0375 218.40625 391.05313 218.40625Q390.08438 218.40625 389.50626 219.23438Q388.77188 220.28125 388.77188 223.09375ZM403.725 227.39062L403.725 228.75L396.14688 228.75Q396.13126 228.23438 396.31876 227.76562Q396.6 227.0 397.24063 226.25Q397.88126 225.5 399.08438 224.51562Q400.94376 222.98438 401.6 222.09375Q402.25626 221.1875 402.25626 220.39062Q402.25626 219.5625 401.6625 218.98438Q401.06876 218.40625 400.1 218.40625Q399.08438 218.40625 398.475 219.01562Q397.86563 219.625 397.86563 220.70312L396.4125 220.5625Q396.56876 218.9375 397.5375 218.09375Q398.50626 217.25 400.13126 217.25Q401.7875 217.25 402.74063 218.17188Q403.70938 219.07812 403.70938 220.42188Q403.70938 221.10938 403.42813 221.78125Q403.14688 222.4375 402.49063 223.17188Q401.83438 223.90625 400.31876 225.1875Q399.05313 226.25 398.69376 226.64062Q398.33438 227.01562 398.1 227.39062L403.725 227.39062ZM409.83438 228.75L409.83438 226.0L404.86563 226.0L404.86563 224.71875L410.1 217.29688L411.24063 217.29688L411.24063 224.71875L412.7875 224.71875L412.7875 226.0L411.24063 226.0L411.24063 228.75L409.83438 228.75ZM409.83438 224.71875L409.83438 219.54688L406.25626 224.71875L409.83438 224.71875Z" fill-rule="nonzero"/><path fill="#004586" d="M52.0 310.05C52.0 313.3637 49.31371 316.05 46.0 316.05C42.68629 316.05 40.0 313.3637 40.0 310.05C40.0 306.7363 42.68629 304.05 46.0 304.05C49.31371 304.05 52.0 306.7363 52.0 310.05Z" fill-rule="nonzero"/><path fill="#757575" d="M61.296875 317.05L61.296875 306.675L62.875 306.675L62.875 308.2531Q63.484375 307.14374 64.0 306.8Q64.515625 306.4406 65.125 306.4406Q66.015625 306.4406 66.9375 307.0031L66.328125 308.64374Q65.6875 308.2531 65.046875 308.2531Q64.46875 308.2531 64.0 308.6125Q63.546875 308.95624 63.34375 309.5656Q63.0625 310.5031 63.0625 311.6125L63.0625 317.05L61.296875 317.05ZM75.09375 315.76874Q74.109375 316.59686 73.203125 316.9406Q72.296875 317.28436 71.265625 317.28436Q69.5625 317.28436 68.640625 316.45624Q67.71875 315.6125 67.71875 314.3156Q67.71875 313.55 68.0625 312.925Q68.421875 312.3 68.984375 311.925Q69.546875 311.53436 70.25 311.33124Q70.765625 311.20624 71.8125 311.0656Q73.9375 310.8156 74.9375 310.47186Q74.953125 310.1125 74.953125 310.0031Q74.953125 308.9406 74.453125 308.4875Q73.78125 307.89374 72.453125 307.89374Q71.203125 307.89374 70.609375 308.33124Q70.03125 308.76874 69.75 309.8781L68.03125 309.64374Q68.265625 308.53436 68.796875 307.8625Q69.328125 307.175 70.34375 306.8156Q71.359375 306.4406 72.703125 306.4406Q74.03125 306.4406 74.859375 306.7531Q75.6875 307.0656 76.078125 307.55Q76.46875 308.01874 76.625 308.7375Q76.71875 309.1906 76.71875 310.3625L76.71875 312.70624Q76.71875 315.15936 76.828125 315.8156Q76.9375 316.45624 77.28125 317.05L75.4375 317.05Q75.171875 316.5031 75.09375 315.76874ZM74.9375 311.84686Q73.984375 312.2375 72.0625 312.5031Q70.984375 312.65936 70.53125 312.8625Q70.09375 313.05 69.84375 313.425Q69.59375 313.8 69.59375 314.26874Q69.59375 314.97186 70.125 315.4406Q70.65625 315.90936 71.6875 315.90936Q72.703125 315.90936 73.484375 315.47186Q74.28125 315.01874 74.65625 314.2531Q74.9375 313.64374 74.9375 312.4875L74.9375 311.84686ZM81.234375 317.05L78.0625 306.675L79.875 306.675L81.53125 312.65936L82.140625 314.89374Q82.1875 314.72186 82.671875 312.7531L84.328125 306.675L86.140625 306.675L87.6875 312.6906L88.203125 314.675L88.796875 312.675L90.578125 306.675L92.28125 306.675L89.046875 317.05L87.21875 317.05L85.5625 310.83124L85.171875 309.0656L83.0625 317.05L81.234375 317.05ZM106.046875 317.05L106.046875 315.7375Q105.0625 317.28436 103.140625 317.28436Q101.90625 317.28436 100.859375 316.59686Q99.828125 315.90936 99.25 314.6906Q98.6875 313.47186 98.6875 311.8781Q98.6875 310.3156 99.203125 309.05Q99.71875 307.78436 100.75 307.1125Q101.796875 306.4406 103.0625 306.4406Q104.0 306.4406 104.734375 306.84686Q105.46875 307.2375 105.9375 307.8625L105.9375 302.7375L107.671875 302.7375L107.671875 317.05L106.046875 317.05ZM100.484375 311.8781Q100.484375 313.8625 101.328125 314.84686Q102.171875 315.83124 103.3125 315.83124Q104.46875 315.83124 105.265625 314.89374Q106.078125 313.95624 106.078125 312.01874Q106.078125 309.89374 105.25 308.89374Q104.4375 307.89374 103.234375 307.89374Q102.0625 307.89374 101.265625 308.8625Q100.484375 309.8156 100.484375 311.8781ZM117.09375 315.76874Q116.109375 316.59686 115.203125 316.9406Q114.296875 317.28436 113.265625 317.28436Q111.5625 317.28436 110.640625 316.45624Q109.71875 315.6125 109.71875 314.3156Q109.71875 313.55 110.0625 312.925Q110.421875 312.3 110.984375 311.925Q111.546875 311.53436 112.25 311.33124Q112.765625 311.20624 113.8125 311.0656Q115.9375 310.8156 116.9375 310.47186Q116.953125 310.1125 116.953125 310.0031Q116.953125 308.9406 116.453125 308.4875Q115.78125 307.89374 114.453125 307.89374Q113.203125 307.89374 112.609375 308.33124Q112.03125 308.76874 111.75 309.8781L110.03125 309.64374Q110.265625 308.53436 110.796875 307.8625Q111.328125 307.175 112.34375 306.8156Q113.359375 306.4406 114.703125 306.4406Q116.03125 306.4406 116.859375 306.7531Q117.6875 307.0656 118.078125 307.55Q118.46875 308.01874 118.625 308.7375Q118.71875 309.1906 118.71875 310.3625L118.71875 312.70624Q118.71875 315.15936 118.828125 315.8156Q118.9375 316.45624 119.28125 317.05L117.4375 317.05Q117.171875 316.5031 117.09375 315.76874ZM116.9375 311.84686Q115.984375 312.2375 114.0625 312.5031Q112.984375 312.65936 112.53125 312.8625Q112.09375 313.05 111.84375 313.425Q111.59375 313.8 111.59375 314.26874Q111.59375 314.97186 112.125 315.4406Q112.65625 315.90936 113.6875 315.90936Q114.703125 315.90936 115.484375 315.47186Q116.28125 315.01874 116.65625 314.2531Q116.9375 313.64374 116.9375 312.4875L116.9375 311.84686ZM125.15625 315.47186L125.40625 317.03436Q124.671875 317.1906 124.078125 317.1906Q123.125 317.1906 122.59375 316.89374Q122.078125 316.58124 121.859375 316.09686Q121.640625 315.59686 121.640625 314.01874L121.640625 308.05L120.359375 308.05L120.359375 306.675L121.640625 306.675L121.640625 304.1125L123.390625 303.05L123.390625 306.675L125.15625 306.675L125.15625 308.05L123.390625 308.05L123.390625 314.1125Q123.390625 314.8625 123.484375 315.08124Q123.578125 315.28436 123.78125 315.425Q124.0 315.55 124.390625 315.55Q124.671875 315.55 125.15625 315.47186ZM134.09375 315.76874Q133.10938 316.59686 132.20312 316.9406Q131.29688 317.28436 130.26562 317.28436Q128.5625 317.28436 127.640625 316.45624Q126.71875 315.6125 126.71875 314.3156Q126.71875 313.55 127.0625 312.925Q127.421875 312.3 127.984375 311.925Q128.54688 311.53436 129.25 311.33124Q129.76562 311.20624 130.8125 311.0656Q132.9375 310.8156 133.9375 310.47186Q133.95312 310.1125 133.95312 310.0031Q133.95312 308.9406 133.45312 308.4875Q132.78125 307.89374 131.45312 307.89374Q130.20312 307.89374 129.60938 308.33124Q129.03125 308.76874 128.75 309.8781L127.03125 309.64374Q127.265625 308.53436 127.796875 307.8625Q128.32812 307.175 129.34375 306.8156Q130.35938 306.4406 131.70312 306.4406Q133.03125 306.4406 133.85938 306.7531Q134.6875 307.0656 135.07812 307.55Q135.46875 308.01874 135.625 308.7375Q135.71875 309.1906 135.71875 310.3625L135.71875 312.70624Q135.71875 315.15936 135.82812 315.8156Q135.9375 316.45624 136.28125 317.05L134.4375 317.05Q134.17188 316.5031 134.09375 315.76874ZM133.9375 311.84686Q132.98438 312.2375 131.0625 312.5031Q129.98438 312.65936 129.53125 312.8625Q129.09375 313.05 128.84375 313.425Q128.59375 313.8 128.59375 314.26874Q128.59375 314.97186 129.125 315.4406Q129.65625 315.90936 130.6875 315.90936Q131.70312 315.90936 132.48438 315.47186Q133.28125 315.01874 133.65625 314.2531Q133.9375 313.64374 133.9375 312.4875L133.9375 311.84686ZM142.96875 317.05L148.46875 302.7375L150.51562 302.7375L156.375 317.05L154.21875 317.05L152.54688 312.70624L146.5625 312.70624L144.98438 317.05L142.96875 317.05ZM147.10938 311.175L151.95312 311.175L150.46875 307.20624Q149.78125 305.39374 149.45312 304.2375Q149.17188 305.6125 148.67188 306.97186L147.10938 311.175ZM160.20312 317.05L156.25 306.675L158.10938 306.675L160.34375 312.89374Q160.70312 313.89374 161.0 314.97186Q161.23438 314.15936 161.65625 313.0031L163.95312 306.675L165.76562 306.675L161.84375 317.05L160.20312 317.05ZM174.42188 313.70624L176.23438 313.9406Q175.8125 315.51874 174.64062 316.40936Q173.48438 317.28436 171.67188 317.28436Q169.40625 317.28436 168.0625 315.89374Q166.73438 314.4875 166.73438 311.95624Q166.73438 309.33124 168.07812 307.89374Q169.42188 306.4406 171.57812 306.4406Q173.65625 306.4406 174.96875 307.8625Q176.29688 309.26874 176.29688 311.84686Q176.29688 312.0031 176.28125 312.3156L168.54688 312.3156Q168.64062 314.01874 169.51562 314.925Q170.39062 315.83124 171.6875 315.83124Q172.65625 315.83124 173.32812 315.33124Q174.01562 314.8156 174.42188 313.70624ZM168.64062 310.8625L174.4375 310.8625Q174.32812 309.5656 173.78125 308.90936Q172.9375 307.89374 171.59375 307.89374Q170.39062 307.89374 169.5625 308.70624Q168.73438 309.5031 168.64062 310.8625ZM178.29688 317.05L178.29688 306.675L179.875 306.675L179.875 308.2531Q180.48438 307.14374 181.0 306.8Q181.51562 306.4406 182.125 306.4406Q183.01562 306.4406 183.9375 307.0031L183.32812 308.64374Q182.6875 308.2531 182.04688 308.2531Q181.46875 308.2531 181.0 308.6125Q180.54688 308.95624 180.34375 309.5656Q180.0625 310.5031 180.0625 311.6125L180.0625 317.05L178.29688 317.05ZM192.09375 315.76874Q191.10938 316.59686 190.20312 316.9406Q189.29688 317.28436 188.26562 317.28436Q186.5625 317.28436 185.64062 316.45624Q184.71875 315.6125 184.71875 314.3156Q184.71875 313.55 185.0625 312.925Q185.42188 312.3 185.98438 311.925Q186.54688 311.53436 187.25 311.33124Q187.76562 311.20624 188.8125 311.0656Q190.9375 310.8156 191.9375 310.47186Q191.95312 310.1125 191.95312 310.0031Q191.95312 308.9406 191.45312 308.4875Q190.78125 307.89374 189.45312 307.89374Q188.20312 307.89374 187.60938 308.33124Q187.03125 308.76874 186.75 309.8781L185.03125 309.64374Q185.26562 308.53436 185.79688 307.8625Q186.32812 307.175 187.34375 306.8156Q188.35938 306.4406 189.70312 306.4406Q191.03125 306.4406 191.85938 306.7531Q192.6875 307.0656 193.07812 307.55Q193.46875 308.01874 193.625 308.7375Q193.71875 309.1906 193.71875 310.3625L193.71875 312.70624Q193.71875 315.15936 193.82812 315.8156Q193.9375 316.45624 194.28125 317.05L192.4375 317.05Q192.17188 316.5031 192.09375 315.76874ZM191.9375 311.84686Q190.98438 312.2375 189.0625 312.5031Q187.98438 312.65936 187.53125 312.8625Q187.09375 313.05 186.84375 313.425Q186.59375 313.8 186.59375 314.26874Q186.59375 314.97186 187.125 315.4406Q187.65625 315.90936 188.6875 315.90936Q189.70312 315.90936 190.48438 315.47186Q191.28125 315.01874 191.65625 314.2531Q191.9375 313.64374 191.9375 312.4875L191.9375 311.84686ZM196.0 317.90936L197.70312 318.15936Q197.8125 318.95624 198.29688 319.3156Q198.95312 319.8 200.09375 319.8Q201.3125 319.8 201.96875 319.3156Q202.64062 318.83124 202.875 317.95624Q203.01562 317.40936 203.0 315.6906Q201.84375 317.05 200.125 317.05Q197.98438 317.05 196.8125 315.5031Q195.64062 313.95624 195.64062 311.8Q195.64062 310.3156 196.17188 309.0656Q196.71875 307.8156 197.73438 307.1281Q198.76562 306.4406 200.14062 306.4406Q201.96875 306.4406 203.17188 307.925L203.17188 306.675L204.78125 306.675L204.78125 315.64374Q204.78125 318.0656 204.28125 319.0656Q203.79688 320.08124 202.71875 320.65936Q201.65625 321.2531 200.09375 321.2531Q198.25 321.2531 197.09375 320.425Q195.95312 319.59686 196.0 317.90936ZM197.45312 311.675Q197.45312 313.72186 198.26562 314.65936Q199.07812 315.59686 200.29688 315.59686Q201.5 315.59686 202.3125 314.65936Q203.14062 313.72186 203.14062 311.7375Q203.14062 309.83124 202.29688 308.8625Q201.45312 307.89374 200.26562 307.89374Q199.09375 307.89374 198.26562 308.84686Q197.45312 309.8 197.45312 311.675ZM214.42188 313.70624L216.23438 313.9406Q215.8125 315.51874 214.64062 316.40936Q213.48438 317.28436 211.67188 317.28436Q209.40625 317.28436 208.0625 315.89374Q206.73438 314.4875 206.73438 311.95624Q206.73438 309.33124 208.07812 307.89374Q209.42188 306.4406 211.57812 306.4406Q213.65625 306.4406 214.96875 307.8625Q216.29688 309.26874 216.29688 311.84686Q216.29688 312.0031 216.28125 312.3156L208.54688 312.3156Q208.64062 314.01874 209.51562 314.925Q210.39062 315.83124 211.6875 315.83124Q212.65625 315.83124 213.32812 315.33124Q214.01562 314.8156 214.42188 313.70624ZM208.64062 310.8625L214.4375 310.8625Q214.32812 309.5656 213.78125 308.90936Q212.9375 307.89374 211.59375 307.89374Q210.39062 307.89374 209.5625 308.70624Q208.73438 309.5031 208.64062 310.8625Z" fill-rule="nonzero"/><path fill="#ff420e" d="M239.0 304.05L244.19615 313.05L233.80385 313.05Z" fill-rule="nonzero"/><path fill="#757575" d="M254.64062 317.05L254.64062 302.7375L264.29688 302.7375L264.29688 304.425L256.53125 304.425L256.53125 308.8625L263.25 308.8625L263.25 310.55L256.53125 310.55L256.53125 317.05L254.64062 317.05ZM266.64062 317.05L266.64062 302.7375L276.29688 302.7375L276.29688 304.425L268.53125 304.425L268.53125 308.8625L275.25 308.8625L275.25 310.55L268.53125 310.55L268.53125 317.05L266.64062 317.05ZM282.1875 317.05L282.1875 304.425L277.46875 304.425L277.46875 302.7375L288.8125 302.7375L288.8125 304.425L284.07812 304.425L284.07812 317.05L282.1875 317.05ZM303.04688 317.05L303.04688 315.7375Q302.0625 317.28436 300.14062 317.28436Q298.90625 317.28436 297.85938 316.59686Q296.82812 315.90936 296.25 314.6906Q295.6875 313.47186 295.6875 311.8781Q295.6875 310.3156 296.20312 309.05Q296.71875 307.78436 297.75 307.1125Q298.79688 306.4406 300.0625 306.4406Q301.0 306.4406 301.73438 306.84686Q302.46875 307.2375 302.9375 307.8625L302.9375 302.7375L304.67188 302.7375L304.67188 317.05L303.04688 317.05ZM297.48438 311.8781Q297.48438 313.8625 298.32812 314.84686Q299.17188 315.83124 300.3125 315.83124Q301.46875 315.83124 302.26562 314.89374Q303.07812 313.95624 303.07812 312.01874Q303.07812 309.89374 302.25 308.89374Q301.4375 307.89374 300.23438 307.89374Q299.0625 307.89374 298.26562 308.8625Q297.48438 309.8156 297.48438 311.8781ZM314.09375 315.76874Q313.10938 316.59686 312.20312 316.9406Q311.29688 317.28436 310.26562 317.28436Q308.5625 317.28436 307.64062 316.45624Q306.71875 315.6125 306.71875 314.3156Q306.71875 313.55 307.0625 312.925Q307.42188 312.3 307.98438 311.925Q308.54688 311.53436 309.25 311.33124Q309.76562 311.20624 310.8125 311.0656Q312.9375 310.8156 313.9375 310.47186Q313.95312 310.1125 313.95312 310.0031Q313.95312 308.9406 313.45312 308.4875Q312.78125 307.89374 311.45312 307.89374Q310.20312 307.89374 309.60938 308.33124Q309.03125 308.76874 308.75 309.8781L307.03125 309.64374Q307.26562 308.53436 307.79688 307.8625Q308.32812 307.175 309.34375 306.8156Q310.35938 306.4406 311.70312 306.4406Q313.03125 306.4406 313.85938 306.7531Q314.6875 307.0656 315.07812 307.55Q315.46875 308.01874 315.625 308.7375Q315.71875 309.1906 315.71875 310.3625L315.71875 312.70624Q315.71875 315.15936 315.82812 315.8156Q315.9375 316.45624 316.28125 317.05L314.4375 317.05Q314.17188 316.5031 314.09375 315.76874ZM313.9375 311.84686Q312.98438 312.2375 311.0625 312.5031Q309.98438 312.65936 309.53125 312.8625Q309.09375 313.05 308.84375 313.425Q308.59375 313.8 308.59375 314.26874Q308.59375 314.97186 309.125 315.4406Q309.65625 315.90936 310.6875 315.90936Q311.70312 315.90936 312.48438 315.47186Q313.28125 315.01874 313.65625 314.2531Q313.9375 313.64374 313.9375 312.4875L313.9375 311.84686ZM322.15625 315.47186L322.40625 317.03436Q321.67188 317.1906 321.07812 317.1906Q320.125 317.1906 319.59375 316.89374Q319.07812 316.58124 318.85938 316.09686Q318.64062 315.59686 318.64062 314.01874L318.64062 308.05L317.35938 308.05L317.35938 306.675L318.64062 306.675L318.64062 304.1125L320.39062 303.05L320.39062 306.675L322.15625 306.675L322.15625 308.05L320.39062 308.05L320.39062 314.1125Q320.39062 314.8625 320.48438 315.08124Q320.57812 315.28436 320.78125 315.425Q321.0 315.55 321.39062 315.55Q321.67188 315.55 322.15625 315.47186ZM331.09375 315.76874Q330.10938 316.59686 329.20312 316.9406Q328.29688 317.28436 327.26562 317.28436Q325.5625 317.28436 324.64062 316.45624Q323.71875 315.6125 323.71875 314.3156Q323.71875 313.55 324.0625 312.925Q324.42188 312.3 324.98438 311.925Q325.54688 311.53436 326.25 311.33124Q326.76562 311.20624 327.8125 311.0656Q329.9375 310.8156 330.9375 310.47186Q330.95312 310.1125 330.95312 310.0031Q330.95312 308.9406 330.45312 308.4875Q329.78125 307.89374 328.45312 307.89374Q327.20312 307.89374 326.60938 308.33124Q326.03125 308.76874 325.75 309.8781L324.03125 309.64374Q324.26562 308.53436 324.79688 307.8625Q325.32812 307.175 326.34375 306.8156Q327.35938 306.4406 328.70312 306.4406Q330.03125 306.4406 330.85938 306.7531Q331.6875 307.0656 332.07812 307.55Q332.46875 308.01874 332.625 308.7375Q332.71875 309.1906 332.71875 310.3625L332.71875 312.70624Q332.71875 315.15936 332.82812 315.8156Q332.9375 316.45624 333.28125 317.05L331.4375 317.05Q331.17188 316.5031 331.09375 315.76874ZM330.9375 311.84686Q329.98438 312.2375 328.0625 312.5031Q326.98438 312.65936 326.53125 312.8625Q326.09375 313.05 325.84375 313.425Q325.59375 313.8 325.59375 314.26874Q325.59375 314.97186 326.125 315.4406Q326.65625 315.90936 327.6875 315.90936Q328.70312 315.90936 329.48438 315.47186Q330.28125 315.01874 330.65625 314.2531Q330.9375 313.64374 330.9375 312.4875L330.9375 311.84686ZM339.96875 317.05L345.46875 302.7375L347.51562 302.7375L353.375 317.05L351.21875 317.05L349.54688 312.70624L343.5625 312.70624L341.98438 317.05L339.96875 317.05ZM344.10938 311.175L348.95312 311.175L347.46875 307.20624Q346.78125 305.39374 346.45312 304.2375Q346.17188 305.6125 345.67188 306.97186L344.10938 311.175ZM357.20312 317.05L353.25 306.675L355.10938 306.675L357.34375 312.89374Q357.70312 313.89374 358.0 314.97186Q358.23438 314.15936 358.65625 313.0031L360.95312 306.675L362.76562 306.675L358.84375 317.05L357.20312 317.05ZM371.42188 313.70624L373.23438 313.9406Q372.8125 315.51874 371.64062 316.40936Q370.48438 317.28436 368.67188 317.28436Q366.40625 317.28436 365.0625 315.89374Q363.73438 314.4875 363.73438 311.95624Q363.73438 309.33124 365.07812 307.89374Q366.42188 306.4406 368.57812 306.4406Q370.65625 306.4406 371.96875 307.8625Q373.29688 309.26874 373.29688 311.84686Q373.29688 312.0031 373.28125 312.3156L365.54688 312.3156Q365.64062 314.01874 366.51562 314.925Q367.39062 315.83124 368.6875 315.83124Q369.65625 315.83124 370.32812 315.33124Q371.01562 314.8156 371.42188 313.70624ZM365.64062 310.8625L371.4375 310.8625Q371.32812 309.5656 370.78125 308.90936Q369.9375 307.89374 368.59375 307.89374Q367.39062 307.89374 366.5625 308.70624Q365.73438 309.5031 365.64062 310.8625ZM375.29688 317.05L375.29688 306.675L376.875 306.675L376.875 308.2531Q377.48438 307.14374 378.0 306.8Q378.51562 306.4406 379.125 306.4406Q380.01562 306.4406 380.9375 307.0031L380.32812 308.64374Q379.6875 308.2531 379.04688 308.2531Q378.46875 308.2531 378.0 308.6125Q377.54688 308.95624 377.34375 309.5656Q377.0625 310.5031 377.0625 311.6125L377.0625 317.05L375.29688 317.05ZM389.09375 315.76874Q388.10938 316.59686 387.20312 316.9406Q386.29688 317.28436 385.26562 317.28436Q383.5625 317.28436 382.64062 316.45624Q381.71875 315.6125 381.71875 314.3156Q381.71875 313.55 382.0625 312.925Q382.42188 312.3 382.98438 311.925Q383.54688 311.53436 384.25 311.33124Q384.76562 311.20624 385.8125 311.0656Q387.9375 310.8156 388.9375 310.47186Q388.95312 310.1125 388.95312 310.0031Q388.95312 308.9406 388.45312 308.4875Q387.78125 307.89374 386.45312 307.89374Q385.20312 307.89374 384.60938 308.33124Q384.03125 308.76874 383.75 309.8781L382.03125 309.64374Q382.26562 308.53436 382.79688 307.8625Q383.32812 307.175 384.34375 306.8156Q385.35938 306.4406 386.70312 306.4406Q388.03125 306.4406 388.85938 306.7531Q389.6875 307.0656 390.07812 307.55Q390.46875 308.01874 390.625 308.7375Q390.71875 309.1906 390.71875 310.3625L390.71875 312.70624Q390.71875 315.15936 390.82812 315.8156Q390.9375 316.45624 391.28125 317.05L389.4375 317.05Q389.17188 316.5031 389.09375 315.76874ZM388.9375 311.84686Q387.98438 312.2375 386.0625 312.5031Q384.98438 312.65936 384.53125 312.8625Q384.09375 313.05 383.84375 313.425Q383.59375 313.8 383.59375 314.26874Q383.59375 314.97186 384.125 315.4406Q384.65625 315.90936 385.6875 315.90936Q386.70312 315.90936 387.48438 315.47186Q388.28125 315.01874 388.65625 314.2531Q388.9375 313.64374 388.9375 312.4875L388.9375 311.84686ZM393.0 317.90936L394.70312 318.15936Q394.8125 318.95624 395.29688 319.3156Q395.95312 319.8 397.09375 319.8Q398.3125 319.8 398.96875 319.3156Q399.64062 318.83124 399.875 317.95624Q400.01562 317.40936 400.0 315.6906Q398.84375 317.05 397.125 317.05Q394.98438 317.05 393.8125 315.5031Q392.64062 313.95624 392.64062 311.8Q392.64062 310.3156 393.17188 309.0656Q393.71875 307.8156 394.73438 307.1281Q395.76562 306.4406 397.14062 306.4406Q398.96875 306.4406 400.17188 307.925L400.17188 306.675L401.78125 306.675L401.78125 315.64374Q401.78125 318.0656 401.28125 319.0656Q400.79688 320.08124 399.71875 320.65936Q398.65625 321.2531 397.09375 321.2531Q395.25 321.2531 394.09375 320.425Q392.95312 319.59686 393.0 317.90936ZM394.45312 311.675Q394.45312 313.72186 395.26562 314.65936Q396.07812 315.59686 397.29688 315.59686Q398.5 315.59686 399.3125 314.65936Q400.14062 313.72186 400.14062 311.7375Q400.14062 309.83124 399.29688 308.8625Q398.45312 307.89374 397.26562 307.89374Q396.09375 307.89374 395.26562 308.84686Q394.45312 309.8 394.45312 311.675ZM411.42188 313.70624L413.23438 313.9406Q412.8125 315.51874 411.64062 316.40936Q410.48438 317.28436 408.67188 317.28436Q406.40625 317.28436 405.0625 315.89374Q403.73438 314.4875 403.73438 311.95624Q403.73438 309.33124 405.07812 307.89374Q406.42188 306.4406 408.57812 306.4406Q410.65625 306.4406 411.96875 307.8625Q413.29688 309.26874 413.29688 311.84686Q413.29688 312.0031 413.28125 312.3156L405.54688 312.3156Q405.64062 314.01874 406.51562 314.925Q407.39062 315.83124 408.6875 315.83124Q409.65625 315.83124 410.32812 315.33124Q411.01562 314.8156 411.42188 313.70624ZM405.64062 310.8625L411.4375 310.8625Q411.32812 309.5656 410.78125 308.90936Q409.9375 307.89374 408.59375 307.89374Q407.39062 307.89374 406.5625 308.70624Q405.73438 309.5031 405.64062 310.8625Z" fill-rule="nonzero"/></svg>